/* XPM */
static char *result[] = {
/* columns rows colors chars-per-pixel */
"45 44 152 2 ",
"   c black",
".  c #040400",
"X  c #2C2C00",
"o  c #343400",
"O  c #333300",
"+  c #323200",
"@  c #0F0F00",
"#  c #010100",
"$  c #090900",
"%  c #0C0C00",
"&  c #060600",
"*  c #282800",
"=  c #D2D200",
"-  c #F3F300",
";  c #EEEE00",
":  c #EFEF00",
">  c #ECEC00",
",  c #555500",
"<  c #030300",
"1  c #0B0B00",
"2  c #020200",
"3  c #050500",
"4  c #969600",
"5  c #C8C800",
"6  c #C0C000",
"7  c #CACA00",
"8  c #FBFB00",
"9  c yellow",
"0  c #D7D700",
"q  c #BFBF00",
"w  c #C4C400",
"e  c #B6B600",
"r  c #252500",
"t  c #353500",
"y  c #878700",
"u  c #8D8D00",
"i  c #A2A200",
"p  c #575700",
"a  c #292900",
"s  c #9F9F00",
"d  c #CBCB00",
"f  c #414100",
"g  c #171700",
"h  c #B0B000",
"j  c #DDDD00",
"k  c #191900",
"l  c #BBBB00",
"z  c #F8F800",
"x  c #FCFC00",
"c  c #D9D900",
"v  c #434300",
"b  c #2A2A00",
"n  c #AAAA00",
"m  c #FAFA00",
"M  c #C6C600",
"N  c #515100",
"B  c #2D2D00",
"V  c #9A9A00",
"C  c #C2C200",
"Z  c #474700",
"A  c #1C1C00",
"S  c #A3A300",
"D  c #0D0D00",
"F  c #B5B500",
"G  c #FDFD00",
"H  c #DBDB00",
"J  c #313100",
"K  c #080800",
"L  c #F5F500",
"P  c #7A7A00",
"I  c #E4E400",
"U  c #989800",
"Y  c #383800",
"T  c #F6F600",
"R  c #737300",
"E  c #373700",
"W  c #F1F100",
"Q  c #707000",
"!  c #6E6E00",
"~  c #3D3D00",
"^  c #ACAC00",
"/  c #F9F900",
"(  c #C7C700",
")  c #5D5D00",
"_  c #747400",
"`  c #AFAF00",
"'  c #E1E100",
"]  c #DEDE00",
"[  c #A9A900",
"{  c #CFCF00",
"}  c #9D9D00",
"|  c #CECE00",
" . c #919100",
".. c #D4D400",
"X. c #717100",
"o. c #4E4E00",
"O. c #BABA00",
"+. c #FEFE00",
"@. c #8F8F00",
"#. c #888800",
"$. c #7E7E00",
"%. c #1B1B00",
"&. c #101000",
"*. c #E7E700",
"=. c #4C4C00",
"-. c #181800",
";. c #C9C900",
":. c #545400",
">. c #202000",
",. c #E3E300",
"<. c #767600",
"1. c #3C3C00",
"2. c #E8E800",
"3. c #4A4A00",
"4. c #1D1D00",
"5. c #363600",
"6. c #E5E500",
"7. c #262600",
"8. c #6F6F00",
"9. c #393900",
"0. c #1A1A00",
"q. c #212100",
"w. c #9B9B00",
"e. c #B2B200",
"r. c #F7F700",
"t. c #BCBC00",
"y. c #F0F000",
"u. c #F2F200",
"i. c #C3C300",
"p. c #7F7F00",
"a. c #EBEB00",
"s. c #DFDF00",
"d. c #4F4F00",
"f. c #424200",
"g. c #D3D300",
"h. c #646400",
"j. c #F4F400",
"k. c #676700",
"l. c #272700",
"z. c #686800",
"x. c #E2E200",
"c. c #2E2E00",
"v. c #C1C100",
"b. c #606000",
"n. c #3B3B00",
"m. c #E9E900",
"M. c #0A0A00",
"N. c #CDCD00",
"B. c #444400",
"V. c #242400",
"C. c #838300",
"Z. c white",
/* pixels */
"                                                                                          ",
"                                                                                          ",
"                                                                                          ",
"                                  . X o O O O O O O O + @                                 ",
"                          # $ % & * = - ; ; ; ; ; ; : > , < % 1 2                         ",
"                          3 4 5 6 7 8 9 9 9 9 9 9 9 9 9 0 q w e r                         ",
"                      t y u > 9 9 9 9 9 9 9 9 9 9 9 9 9 9 9 9 9 i y p                     ",
"                    a s 9 9 9 9 9 9 9 9 9 9 9 9 9 9 9 9 9 9 9 9 9 9 d f .                 ",
"                2 g h 9 9 9 9 9 9 9 9 9 9 9 9 9 9 9 9 9 9 9 9 9 9 9 9 j o 2               ",
"                k l z 9 9 9 9 9 9 9 9 9 9 9 9 9 9 9 9 9 9 9 9 9 9 9 9 x c v               ",
"              b n m 9 9 9 9 9 9 9 9 9 9 9 9 9 9 9 9 9 9 9 9 9 9 9 9 9 9 9 M N             ",
"            B V 9 9 9 9 9 9 9 9 9 9 9 9 9 9 9 9 9 9 9 9 9 9 9 9 9 9 9 9 9 9 C Z           ",
"        2 A S 9 9 9 9 9 9 9 9 9 9 9 9 9 9 9 9 9 9 9 9 9 9 9 9 9 9 9 9 9 9 9 9 = O &       ",
"        D F x 9 9 9 9 9 9 9 9 9 9 9 9 9 9 9 9 9 9 9 9 9 9 9 9 9 9 9 9 9 9 9 9 G H J       ",
"        K 7 9 9 9 9 9 9 9 9 9 9 9 9 9 9 9 9 9 9 9 9 9 9 9 9 9 9 9 9 9 9 9 9 9 9 L +       ",
"      k P I 9 9 9 9 9 9 9 9 9 9 9 9 9 9 9 9 9 9 9 9 9 9 9 9 9 9 9 9 9 9 9 9 9 9 z U J     ",
"      Y T 9 9 9 9 9 9 9 9 9 9 9 9 9 9 9 9 9 9 9 9 9 9 9 9 9 9 9 9 9 9 9 9 9 9 9 9 9 R     ",
"      E W 9 9 9 9 9 9 9 9 9 9 9 9 9 9 9 9 9 9 9 9 9 9 9 9 9 9 9 9 9 9 9 9 9 9 9 9 9 Q     ",
"      o W 9 9 9 9 9 9 9 9 9 9 9 9 9 9 9 9 9 9 9 9 9 9 9 9 9 9 9 9 9 9 9 9 9 9 9 9 9 !     ",
"    ~ ^ / 9 9 9 9 9 9 9 9 9 9 9 9 9 9 9 9 9 9 9 9 9 9 9 9 9 9 9 9 9 9 9 9 9 9 9 9 9 ( ) 2 ",
"    _ 9 9 9 9 9 9 9 9 9 9 9 9 9 9 9 9 9 9 9 9 9 9 9 9 9 9 9 9 9 9 9 9 9 9 9 9 9 9 9 9 ` < ",
"    Q 9 9 9 9 9 9 9 9 9 9 9 9 9 9 9 9 9 9 z ' ] W 9 9 9 9 9 9 9 9 9 9 9 9 9 9 9 9 9 9 [ < ",
"    Q 9 9 9 9 9 9 9 9 9 9 9 9 9 9 9 9 9 9 { B k } 9 9 9 9 9 9 9 9 9 9 9 9 9 9 9 9 9 9 [ < ",
"    Q 9 9 9 9 9 9 9 9 9 9 9 9 9 9 9 9 9 9 | $    .9 9 9 9 9 9 9 9 9 9 9 9 9 9 9 9 9 9 [ < ",
"    Q 9 9 9 9 9 9 9 9 9 9 9 9 9 9 9 9 9 ..X.K   o.O.+.9 9 9 9 9 9 9 9 9 9 9 9 9 9 9 9 [ < ",
"    Q 9 9 9 9 9 9 9 9 9 9 9 9 9 9 9 9 9 @.        N 9 9 9 9 9 9 9 9 9 9 9 9 9 9 9 9 9 [ < ",
"    Q 9 9 9 9 9 9 9 9 9 9 9 9 9 9 9 9 9 #.        o.- +.9 9 9 9 9 9 9 9 9 9 9 9 9 9 9 [ < ",
"    Q 9 9 9 9 9 9 9 9 9 9 9 9 9 9 9 G $.%.        &., *.9 9 9 9 9 9 9 9 9 9 9 9 9 9 9 [ < ",
"    _ 9 9 9 9 9 9 9 9 9 9 9 9 9 9 9 x =.            -.] 9 9 9 9 9 9 9 9 9 9 9 9 9 9 9 ` < ",
"    o.;.8 9 9 9 9 9 9 9 9 9 9 9 9 9 9 :.            >.,.9 9 9 9 9 9 9 9 9 9 9 9 9 9 j <.2 ",
"      1.W 9 9 9 9 9 9 9 9 9 9 9 9 G 2.3.            4.7 x 9 9 9 9 9 9 9 9 9 9 9 9 9 _     ",
"      5.W 9 9 9 9 9 9 9 9 9 9 9 9 6.v K             . 7.l 9 9 9 9 9 9 9 9 9 9 9 9 9 8.    ",
"      9./ 9 9 9 9 9 9 9 9 9 9 9 9 ] 0.                  n 9 9 9 9 9 9 9 9 9 9 9 9 9 _     ",
"      q.w.> 9 9 9 9 9 9 9 9 9 9 9 6.q.                < e.9 9 9 9 9 9 9 9 9 9 9 m e v     ",
"        D ;.9 9 9 9 9 9 9 9 9 9 r.t.0.                2 @.y.9 9 9 9 9 9 9 9 9 9 u.E       ",
"        D i.9 9 9 9 9 9 9 9 9 9 F g 2                   $ p.9 9 9 9 9 9 9 9 9 9 a.t       ",
"        . t e 9 9 9 9 9 9 9 9 9 h                         X.9 9 9 9 9 9 9 9 9 s.d.D       ",
"            f.F 9 9 9 9 9 9 9 6 p #                       E i z 9 9 9 9 9 9 g.h.          ",
"              9.5 8 9 9 9 9 9 !                             O j.9 9 9 9 9 j k.            ",
"                l.= 9 9 9 +.T z.                            O x.+.9 9 +.; ,               ",
"                < c.v.9 9 j.b.&.                            $ n...9 9 m.=.M.              ",
"                    f.F 9 / O                                 K N.9 c b.&                 ",
"                      B.^ } V.                                $ C.e.!                     ",
"                      # < 2 #                                   2 < 2                     "
};
