/* XPM */
static char *result[] = {
/* columns rows colors chars-per-pixel */
"44 45 152 2 ",
"   c black",
".  c #4E4E00",
"X  c #747400",
"o  c #707000",
"O  c #3D3D00",
"+  c #212100",
"@  c #393900",
"#  c #363600",
"$  c #3C3C00",
"%  c #C9C900",
"&  c yellow",
"*  c #ACAC00",
"=  c #343400",
"-  c #373700",
";  c #383800",
":  c #191900",
">  c #040400",
",  c #0D0D00",
"<  c #9B9B00",
"1  c #F9F900",
"2  c #F1F100",
"3  c #FBFB00",
"4  c #F6F600",
"5  c #7A7A00",
"6  c #080800",
"7  c #020200",
"8  c #353500",
"9  c #C3C300",
"0  c #ECEC00",
"q  c #E4E400",
"w  c #CACA00",
"e  c #B5B500",
"r  c #1C1C00",
"t  c #424200",
"y  c #B6B600",
"u  c #FCFC00",
"i  c #A3A300",
"p  c #2D2D00",
"a  c #9A9A00",
"s  c #2A2A00",
"d  c #030300",
"f  c #272700",
"g  c #C8C800",
"h  c #AAAA00",
"j  c #2E2E00",
"k  c #D2D200",
"l  c #FAFA00",
"z  c #BBBB00",
"x  c #171700",
"c  c #C1C100",
"v  c #F8F800",
"b  c #B0B000",
"n  c #292900",
"m  c #010100",
"M  c #444400",
"N  c #9F9F00",
"B  c #878700",
"V  c #9D9D00",
"C  c #F4F400",
"Z  c #FEFE00",
"A  c #8D8D00",
"S  c #050500",
"D  c #242400",
"F  c #333300",
"G  c #606000",
"H  c #969600",
"J  c #090900",
"K  c #101000",
"L  c #686800",
"P  c #6E6E00",
"I  c #C0C000",
"U  c #0C0C00",
"Y  c #575700",
"T  c #F7F700",
"R  c #060600",
"E  c #BCBC00",
"W  c #E5E500",
"Q  c #DEDE00",
"!  c #FDFD00",
"~  c #282800",
"^  c #1A1A00",
"/  c #434300",
"(  c #E8E800",
")  c #2C2C00",
"_  c #4A4A00",
"`  c #545400",
"'  c #4C4C00",
"]  c #7E7E00",
"[  c #F3F300",
"{  c #1B1B00",
"}  c #888800",
"|  c #8F8F00",
" . c #D4D400",
".. c #EEEE00",
"X. c #717100",
"o. c #CECE00",
"O. c #CFCF00",
"+. c #E1E100",
"@. c #919100",
"#. c #515100",
"$. c #BABA00",
"%. c #1D1D00",
"&. c #202000",
"*. c #181800",
"=. c #555500",
"-. c #EFEF00",
";. c #262600",
":. c #E3E300",
">. c #E7E700",
",. c #323200",
"<. c #B2B200",
"1. c #D7D700",
"2. c #0F0F00",
"3. c #7F7F00",
"4. c #F0F000",
"5. c #BFBF00",
"6. c #A2A200",
"7. c #C4C400",
"8. c #3B3B00",
"9. c #E2E200",
"0. c #0B0B00",
"q. c #838300",
"w. c #CDCD00",
"e. c #252500",
"r. c #D9D900",
"t. c #CBCB00",
"y. c #E9E900",
"u. c #DDDD00",
"i. c #414100",
"p. c #0A0A00",
"a. c #C6C600",
"s. c #676700",
"d. c #D3D300",
"f. c #C2C200",
"g. c #646400",
"h. c #DFDF00",
"j. c #474700",
"k. c #4F4F00",
"l. c #EBEB00",
"z. c #F2F200",
"x. c #F5F500",
"c. c #DBDB00",
"v. c #989800",
"b. c #313100",
"n. c #6F6F00",
"m. c #C7C700",
"M. c #737300",
"N. c #767600",
"B. c #AFAF00",
"V. c #A9A900",
"C. c #5D5D00",
"Z. c white",
/* pixels */
"                                                                                        ",
"                                                                                        ",
"                            . X o o o o o o o X O                                       ",
"                    + @ # $ % & & & & & & & & & * = - ; :                               ",
"              > , , < 1 2 2 3 & & & & & & & & & 1 2 2 4 5 6 , 7                         ",
"              8 9 % 0 & & & & & & & & & & & & & & & & & q w e r                         ",
"            t y & & & & & & & & & & & & & & & & & & & & & & u i p                       ",
"          @ e & & & & & & & & & & & & & & & & & & & & & & & & & a s                     ",
"      d f g & & & & & & & & & & & & & & & & & & & & & & & & & & & h : 7                 ",
"      j k 3 & & & & & & & & & & & & & & & & & & & & & & & & & & & l z x                 ",
"    t c & & & & & & & & & & & & & & & & & & & & & & & & & & & & & & v b n               ",
"m M e & & & & & & & & & & & & & & & & & & & & & & & & & & & & & & & & & N 8             ",
"d * & & & & & & & & & & & & & & & & & & & & & & & & & & & & & & & & & & & B             ",
"7 V 1 C Z & & & & & & & & & & & & & & & & & & & & & & & & & & & & & & & & A S m         ",
"m D F G 4 & & & & & & & & & & & & & & & & & & & & & & & & & & & & & & & & 0 H J         ",
"      K L P I & & & & & & & & & & & & & & & & & & & & & & & & & & & & & & & g U         ",
"            Y b e T & & & & & & & & & & & & & & & & & & & & & & & & & & & & I R         ",
"            m   x E W Q W ! & & & & & & & & & & & & & & & & & & & & & & & & w ~ >       ",
"                7 ^ + ^ / ( & u ! & & & & & & & & & & & & & & & & & & & & & 3 k )       ",
"                        6 _ ` ' ] & & & & & & & & & & & & & & & & & & & & & & [ =       ",
"                                { } |  .& & & & & & & & & & & & & & & & & & & ..F       ",
"                                      X.o.O.v & & & & & & & & & & & & & & & & ..F       ",
"                                      6 J p +.& & & & & & & & & & & & & & & & ..F       ",
"                                          : Q & & & & & & & & & & & & & & & & ..F       ",
"                                      . @.V 2 & & & & & & & & & & & & & & & & ..F       ",
"                                K . #.$.& & & & & & & & & & & & & & & & & & & ..F       ",
"                        > %.&.*.=.[ & Z & & & & & & & & & & & & & & & & & & & -.F       ",
"                  7 d   ;.w :.Q >.Z & & & & & & & & & & & & & & & & & & & & & 0 ,.      ",
"                J | <.h z u & & & & & & & & & & & & & & & & & & & & & & & & 1.=.2.      ",
"            - X.3.4.& & & & & & & & & & & & & & & & & & & & & & & & & & & & 5.d         ",
"      J F F 6.& & & & & & & & & & & & & & & & & & & & & & & & & & & & & & & 7.U         ",
"  J 6 8.9.C v & & & & & & & & & & & & & & & & & & & & & & & & & & & & & & & y 0.        ",
"7 q.w. .Z & & & & & & & & & & & & & & & & & & & & & & & & & & & & & & & & 6.e.7         ",
"d <.& & & & & & & & & & & & & & & & & & & & & & & & & & & & & & & & & & & B             ",
"7 P r.& & & & & & & & & & & & & & & & & & & & & & & & & & & & & & & & & t.Y             ",
"    G y.Z & & & & & & & & & & & & & & & & & & & & & & & & & & & & & u u.i.              ",
"    R ' ..& & & & & & & & & & & & & & & & & & & & & & & & & & & & & r.= >               ",
"      p.=.u.& & & & & & & & & & & & & & & & & & & & & & & & & & & a./ 7                 ",
"          s.d.& & & & & & & & & & & & & & & & & & & & & & & & & f.#.                    ",
"            g.h.& & & & & & & & & & & & & & & & & & & & & & ! k j.                      ",
"              k.l.z.l & & & & & & & & & & & & & & & & & v x.c.F                         ",
"              , 8 - y & & & & & & & & & & & & & & & & & v.,.b.R                         ",
"                    / X n.X u.& & & & & & & & & m.P o M.b.                              ",
"                            N.B.V.V.V.V.V.V.V.B.C.                                      ",
"                            7 d d d d d d d d d 7                                       "
};
