/* XPM */
static char *result[] = {
/* columns rows colors chars-per-pixel */
"45 44 152 2 ",
"   c black",
".  c #020200",
"X  c #030300",
"o  c #010100",
"O  c #6E6E00",
"+  c #B2B200",
"@  c #838300",
"#  c #090900",
"$  c #242400",
"%  c #9D9D00",
"&  c #ACAC00",
"*  c #444400",
"=  c #060600",
"-  c #606000",
";  c #D9D900",
":  c yellow",
">  c #CDCD00",
",  c #080800",
"<  c #333300",
"1  c #F9F900",
"2  c #B5B500",
"3  c #424200",
"4  c #0A0A00",
"5  c #4C4C00",
"6  c #E9E900",
"7  c #D4D400",
"8  c #3B3B00",
"9  c #101000",
"0  c #F4F400",
"q  c #C1C100",
"w  c #2E2E00",
"e  c #555500",
"r  c #EEEE00",
"t  c #FEFE00",
"y  c #E2E200",
"u  c #686800",
"i  c #F6F600",
"p  c #D2D200",
"a  c #272700",
"s  c #676700",
"d  c #DDDD00",
"f  c #FBFB00",
"g  c #C8C800",
"h  c #393900",
"j  c #646400",
"k  c #D3D300",
"l  c #F8F800",
"z  c #A2A200",
"x  c #373700",
"c  c #575700",
"v  c #C0C000",
"b  c #0D0D00",
"n  c #4F4F00",
"m  c #DFDF00",
"M  c #717100",
"N  c #B0B000",
"B  c #B6B600",
"V  c #353500",
"C  c #040400",
"Z  c #EBEB00",
"A  c #7F7F00",
"S  c #171700",
"D  c #C3C300",
"F  c #F2F200",
"G  c #F0F000",
"H  c #8F8F00",
"J  c #1A1A00",
"K  c #BCBC00",
"L  c #F7F700",
"P  c #C9C900",
"I  c #434300",
"U  c #FAFA00",
"Y  c #212100",
"T  c #E5E500",
"R  c #ECEC00",
"E  c #9B9B00",
"W  c #747400",
"Q  c #AAAA00",
"!  c #DEDE00",
"~  c #6F6F00",
"^  c #BBBB00",
"/  c #262600",
"(  c #F1F100",
")  c #363600",
"_  c #FCFC00",
"`  c #CACA00",
"'  c #1D1D00",
"]  c #4A4A00",
"[  c #E8E800",
"{  c #FDFD00",
"}  c #3C3C00",
"|  c #767600",
" . c #E3E300",
".. c #202000",
"X. c #545400",
"o. c #4E4E00",
"O. c #AFAF00",
"+. c #181800",
"@. c #A9A900",
"#. c #E7E700",
"$. c #1B1B00",
"%. c #7E7E00",
"&. c #707000",
"*. c #F3F300",
"=. c #888800",
"-. c #515100",
";. c #BABA00",
":. c #919100",
">. c #CECE00",
",. c #191900",
"<. c #2D2D00",
"1. c #CFCF00",
"2. c #E1E100",
"3. c #5D5D00",
"4. c #C7C700",
"5. c #3D3D00",
"6. c #343400",
"7. c #737300",
"8. c #383800",
"9. c #313100",
"0. c #989800",
"q. c #E4E400",
"w. c #7A7A00",
"e. c #323200",
"r. c #F5F500",
"t. c #DBDB00",
"y. c #A3A300",
"u. c #1C1C00",
"i. c #474700",
"p. c #C2C200",
"a. c #9A9A00",
"s. c #C6C600",
"d. c #2A2A00",
"f. c #414100",
"g. c #CBCB00",
"h. c #9F9F00",
"j. c #292900",
"k. c #878700",
"l. c #8D8D00",
"z. c #252500",
"x. c #C4C400",
"c. c #BFBF00",
"v. c #D7D700",
"b. c #969600",
"n. c #050500",
"m. c #0B0B00",
"M. c #0C0C00",
"N. c #EFEF00",
"B. c #282800",
"V. c #0F0F00",
"C. c #2C2C00",
"Z. c white",
/* pixels */
"                    . X .                                   o . X o                       ",
"                    O + @ #                                 $ % & *                       ",
"                = - ; : > ,                                 < 1 : 2 3                     ",
"              4 5 6 : : 7 8 #                             9 - 0 : : q w X                 ",
"              e r t : : t y <                             u i t : : : p a                 ",
"            s d : : : : : 0 <                             O : : : : : f g h               ",
"          j k : : : : : : l z x                       o c v : : : : : : : 2 3             ",
"      b n m : : : : : : : : : M                         N : : : : : : : : : B V C         ",
"      V Z : : : : : : : : : : A #                   . S 2 : : : : : : : : : : D b         ",
"      x F : : : : : : : : : : G H .                 J K L : : : : : : : : : : P b         ",
"    I B U : : : : : : : : : : : + X                 Y T : : : : : : : : : : : R E Y       ",
"    W : : : : : : : : : : : : : Q                   J ! : : : : : : : : : : : : 1 h       ",
"    ~ : : : : : : : : : : : : : ^ / C             , I T : : : : : : : : : : : : ( )       ",
"    W : : : : : : : : : : : : : _ ` '             ] [ { : : : : : : : : : : : : ( }       ",
". | d : : : : : : : : : : : : : :  ...            X.: : : : : : : : : : : : : : f P o.    ",
"X O.: : : : : : : : : : : : : : : ! +.            5 _ : : : : : : : : : : : : : : : W     ",
"X @.: : : : : : : : : : : : : : : #.e 9         $.%.{ : : : : : : : : : : : : : : : &.    ",
"X @.: : : : : : : : : : : : : : : t *.o.        =.: : : : : : : : : : : : : : : : : &.    ",
"X @.: : : : : : : : : : : : : : : : : -.        H : : : : : : : : : : : : : : : : : &.    ",
"X @.: : : : : : : : : : : : : : : : t ;.o.  , M 7 : : : : : : : : : : : : : : : : : &.    ",
"X @.: : : : : : : : : : : : : : : : : : :.  # >.: : : : : : : : : : : : : : : : : : &.    ",
"X @.: : : : : : : : : : : : : : : : : : % ,.<.1.: : : : : : : : : : : : : : : : : : &.    ",
"X @.: : : : : : : : : : : : : : : : : : ( ! 2.l : : : : : : : : : : : : : : : : : : &.    ",
"X O.: : : : : : : : : : : : : : : : : : : : : : : : : : : : : : : : : : : : : : : : W     ",
". 3.4.: : : : : : : : : : : : : : : : : : : : : : : : : : : : : : : : : : : : : 1 & 5.    ",
"    O : : : : : : : : : : : : : : : : : : : : : : : : : : : : : : : : : : : : : ( 6.      ",
"    &.: : : : : : : : : : : : : : : : : : : : : : : : : : : : : : : : : : : : : ( x       ",
"    7.: : : : : : : : : : : : : : : : : : : : : : : : : : : : : : : : : : : : : i 8.      ",
"    9.0.l : : : : : : : : : : : : : : : : : : : : : : : : : : : : : : : : : : q.w.,.      ",
"      e.r.: : : : : : : : : : : : : : : : : : : : : : : : : : : : : : : : : : ` ,         ",
"      9.t.{ : : : : : : : : : : : : : : : : : : : : : : : : : : : : : : : : _ 2 b         ",
"      = < p : : : : : : : : : : : : : : : : : : : : : : : : : : : : : : : : y.u..         ",
"          i.p.: : : : : : : : : : : : : : : : : : : : : : : : : : : : : : a.<.            ",
"            -.s.: : : : : : : : : : : : : : : : : : : : : : : : : : : U Q d.              ",
"              I ; _ : : : : : : : : : : : : : : : : : : : : : : : : l ^ ,.                ",
"              . 6.d : : : : : : : : : : : : : : : : : : : : : : : : N S .                 ",
"                C f.g.: : : : : : : : : : : : : : : : : : : : : : h.j.                    ",
"                    c k.z : : : : : : : : : : : : : : : : : R l.k.V                       ",
"                        z.B x.c.v.: : : : : : : : : f ` v g b.n.                          ",
"                        . m.M.X e R N.r r r r r r *.p B.= M.# o                           ",
"                                V.e.< < < < < < < 6.C.C                                   ",
"                                                                                          ",
"                                                                                          ",
"                                                                                          "
};
