/* XPM */
static char *result[] = {
/* columns rows colors chars-per-pixel */
"35 35 40 1 ",
"  c #BDBD00",
". c #CBCB00",
"X c #D1D100",
"o c #D2D200",
"O c #D3D300",
"+ c #D6D600",
"@ c #D7D700",
"# c #D9D900",
"$ c #DADA00",
"% c #DBDB00",
"& c #DCDC00",
"* c #DDDD00",
"= c #DEDE00",
"- c #E0E000",
"; c #E3E300",
": c #E5E500",
"> c #E6E600",
", c #E7E700",
"< c #E8E800",
"1 c #E9E900",
"2 c #EAEA00",
"3 c #ECEC00",
"4 c #EDED00",
"5 c #EEEE00",
"6 c #F0F000",
"7 c #F1F100",
"8 c #F3F300",
"9 c #F4F400",
"0 c #F5F500",
"q c #F6F600",
"w c #F7F700",
"e c #F8F800",
"r c #F9F900",
"t c #FAFA00",
"y c #FBFB00",
"u c #FCFC00",
"i c #FDFD00",
"p c #FEFE00",
"a c yellow",
"s c None",
/* pixels */
"sssssssssssssssssssssssssssssssssss",
"ssssssssssssssOOOoXX*ssssssssssssss",
"ssssssssss0aquaaaaaay6a;sssssssssss",
"sssssssss4yaaaaaaaaaaaaw2,sssssssss",
"sssssss+epaaaaaaaaaaaaaaaq-ssssssss",
"ssssss;yaaaaaaaaaaaaaaaaaa0<sssssss",
"sssss@iaaaaaaaaaaaaaaaaaaaae2ssssss",
"ssss.0aaaaaaaaaaaaaaaaaaaaaaq%sssss",
"sss*qaaaaaaaaaaaaaaaaaaaaaaaa0sssss",
"sss0aaaaaaaaaaaaaaaaaaaaaaaaaa:ssss",
"sssqaaaaaaaaaaaaaaaaaaaaaaaaaa0ssss",
"ss1aaaaaaaaaaaaaaaaaaaaaaaaaaapesss",
"ss1aaaaaaaaaaaaaaaaaaaaaaaaaaap8sss",
"s 8aaaaaaaaaaaaaaaaaaaaaaaaaaaaqsss",
"s#aaaaaaaaaaaaaaaaaaaaaaaaaaaaaa<ss",
"s#aaaaaaaaaaaaaaaaaaaaaaaaaaaaaa1ss",
"s#aaaaaaaaaaaaaaaaaaaaaaaaaaaaaa1ss",
"s$aaaaaaaaaaaaaaaaaaaaaaaaaaaaaa2ss",
"s%aaaaaaaaaaaaaaaaaaaaaaaaaaaaaa3ss",
"s&aaaaaaaaaaaaaaaaaaaaaaaaaaaaaa7ss",
"s=aaaaaaaaaaaaaaaaaaaaaaaaaaaaaa9ss",
"ssraaaaaaaaaaaaaaaaaaaaaaaaaaaawsss",
"ssaaaaaaaaaaaaaaaaaaaaaaaaaaaap9sss",
"sssaaaaaaaaaaaaaaaaaaaaaaaaaaapesss",
"sssuaaaaaaaaaaaaaaaaaaaaaaaaaaessss",
"ssssaaaaaaaaaaaaaaaaaaaaaaaaaasssss",
"ssssaaaaaaaaaaaaaaaaaaaaaaaaaasssss",
"sssssiaaaaaaaaaaaaaaaaaaaaaaassssss",
"ssssssaaaaaaaaaaaaaaaaaaaaapsssssss",
"sssssssiaaaaaaaaaaaaaaaaaaassssssss",
"sssssssstaaaaaaaaaaaaaaaaasssssssss",
"ssssssssssiaaaaaaaaaaaausssssssssss",
"sssssssssssaaaaaaaaaupassssssssssss",
"ssssssssssssssss2><5sssssssssssssss",
"sssssssssssssssssssssssssssssssssss"
};
