/* XPM */
static char *result[] = {
/* columns rows colors chars-per-pixel */
"44 45 152 2 ",
"   c black",
".  c #3D3D00",
"X  c #747400",
"o  c #707000",
"O  c #4E4E00",
"+  c #191900",
"@  c #383800",
"#  c #373700",
"$  c #343400",
"%  c #ACAC00",
"&  c yellow",
"*  c #C9C900",
"=  c #3C3C00",
"-  c #363600",
";  c #393900",
":  c #212100",
">  c #020200",
",  c #0D0D00",
"<  c #080800",
"1  c #7A7A00",
"2  c #F6F600",
"3  c #F1F100",
"4  c #F9F900",
"5  c #FBFB00",
"6  c #9B9B00",
"7  c #040400",
"8  c #1C1C00",
"9  c #B5B500",
"0  c #CACA00",
"q  c #E4E400",
"w  c #ECEC00",
"e  c #C3C300",
"r  c #353500",
"t  c #2D2D00",
"y  c #A3A300",
"u  c #FCFC00",
"i  c #B6B600",
"p  c #424200",
"a  c #2A2A00",
"s  c #9A9A00",
"d  c #AAAA00",
"f  c #C8C800",
"g  c #272700",
"h  c #030300",
"j  c #171700",
"k  c #BBBB00",
"l  c #FAFA00",
"z  c #D2D200",
"x  c #2E2E00",
"c  c #292900",
"v  c #B0B000",
"b  c #F8F800",
"n  c #C1C100",
"m  c #9F9F00",
"M  c #444400",
"N  c #010100",
"B  c #878700",
"V  c #050500",
"C  c #8D8D00",
"Z  c #FEFE00",
"A  c #F4F400",
"S  c #9D9D00",
"D  c #090900",
"F  c #969600",
"G  c #606000",
"H  c #333300",
"J  c #242400",
"K  c #0C0C00",
"L  c #C0C000",
"P  c #6E6E00",
"I  c #686800",
"U  c #101000",
"Y  c #060600",
"T  c #F7F700",
"R  c #575700",
"E  c #282800",
"W  c #FDFD00",
"Q  c #E5E500",
"!  c #DEDE00",
"~  c #BCBC00",
"^  c #2C2C00",
"/  c #E8E800",
"(  c #434300",
")  c #1A1A00",
"_  c #F3F300",
"`  c #7E7E00",
"'  c #4C4C00",
"]  c #545400",
"[  c #4A4A00",
"{  c #EEEE00",
"}  c #D4D400",
"|  c #8F8F00",
" . c #888800",
".. c #1B1B00",
"X. c #CFCF00",
"o. c #CECE00",
"O. c #717100",
"+. c #E1E100",
"@. c #919100",
"#. c #BABA00",
"$. c #515100",
"%. c #EFEF00",
"&. c #555500",
"*. c #181800",
"=. c #202000",
"-. c #1D1D00",
";. c #323200",
":. c #E7E700",
">. c #E3E300",
",. c #262600",
"<. c #0F0F00",
"1. c #D7D700",
"2. c #B2B200",
"3. c #BFBF00",
"4. c #F0F000",
"5. c #7F7F00",
"6. c #C4C400",
"7. c #A2A200",
"8. c #0B0B00",
"9. c #E2E200",
"0. c #3B3B00",
"q. c #252500",
"w. c #CDCD00",
"e. c #838300",
"r. c #CBCB00",
"t. c #D9D900",
"y. c #414100",
"u. c #DDDD00",
"i. c #E9E900",
"p. c #C6C600",
"a. c #0A0A00",
"s. c #C2C200",
"d. c #D3D300",
"f. c #676700",
"g. c #474700",
"h. c #DFDF00",
"j. c #646400",
"k. c #DBDB00",
"l. c #F5F500",
"z. c #F2F200",
"x. c #EBEB00",
"c. c #4F4F00",
"v. c #313100",
"b. c #989800",
"n. c #737300",
"m. c #C7C700",
"M. c #6F6F00",
"N. c #5D5D00",
"B. c #AFAF00",
"V. c #A9A900",
"C. c #767600",
"Z. c white",
/* pixels */
"                                                                                        ",
"                                                                                        ",
"                                      . X o o o o o o o X O                             ",
"                              + @ # $ % & & & & & & & & & * = - ; :                     ",
"                        > , < 1 2 3 3 4 & & & & & & & & & 5 3 3 4 6 , , 7               ",
"                        8 9 0 q & & & & & & & & & & & & & & & & & w * e r               ",
"                      t y u & & & & & & & & & & & & & & & & & & & & & & i p             ",
"                    a s & & & & & & & & & & & & & & & & & & & & & & & & & 9 ;           ",
"                > + d & & & & & & & & & & & & & & & & & & & & & & & & & & & f g h       ",
"                j k l & & & & & & & & & & & & & & & & & & & & & & & & & & & 5 z x       ",
"              c v b & & & & & & & & & & & & & & & & & & & & & & & & & & & & & & n p     ",
"            r m & & & & & & & & & & & & & & & & & & & & & & & & & & & & & & & & & 9 M N ",
"            B & & & & & & & & & & & & & & & & & & & & & & & & & & & & & & & & & & & % h ",
"        N V C & & & & & & & & & & & & & & & & & & & & & & & & & & & & & & & & Z A 4 S > ",
"        D F w & & & & & & & & & & & & & & & & & & & & & & & & & & & & & & & & 2 G H J N ",
"        K f & & & & & & & & & & & & & & & & & & & & & & & & & & & & & & & L P I U       ",
"        Y L & & & & & & & & & & & & & & & & & & & & & & & & & & & & T 9 v R             ",
"      7 E 0 & & & & & & & & & & & & & & & & & & & & & & & & W Q ! Q ~ j   N             ",
"      ^ z 5 & & & & & & & & & & & & & & & & & & & & & W u & / ( ) : ) >                 ",
"      $ _ & & & & & & & & & & & & & & & & & & & & & & ` ' ] [ <                         ",
"      H { & & & & & & & & & & & & & & & & & & & } |  ...                                ",
"      H { & & & & & & & & & & & & & & & & b X.o.O.                                      ",
"      H { & & & & & & & & & & & & & & & & +.t D <                                       ",
"      H { & & & & & & & & & & & & & & & & ! +                                           ",
"      H { & & & & & & & & & & & & & & & & 3 S @.O                                       ",
"      H { & & & & & & & & & & & & & & & & & & & #.$.O U                                 ",
"      H %.& & & & & & & & & & & & & & & & & & & Z & _ &.*.=.-.7                         ",
"      ;.w & & & & & & & & & & & & & & & & & & & & & Z :.! >.0 ,.  h >                   ",
"      <.&.1.& & & & & & & & & & & & & & & & & & & & & & & & u k d 2.| D                 ",
"        h 3.& & & & & & & & & & & & & & & & & & & & & & & & & & & & 4.5.O.#             ",
"        K 6.& & & & & & & & & & & & & & & & & & & & & & & & & & & & & & & 7.H H D       ",
"        8.i & & & & & & & & & & & & & & & & & & & & & & & & & & & & & & & b A 9.0.< D   ",
"        > q.7.& & & & & & & & & & & & & & & & & & & & & & & & & & & & & & & & Z } w.e.> ",
"            B & & & & & & & & & & & & & & & & & & & & & & & & & & & & & & & & & & & 2.h ",
"            R r.& & & & & & & & & & & & & & & & & & & & & & & & & & & & & & & & & t.P > ",
"              y.u.u & & & & & & & & & & & & & & & & & & & & & & & & & & & & & Z i.G     ",
"              7 $ t.& & & & & & & & & & & & & & & & & & & & & & & & & & & & & { ' Y     ",
"                > ( p.& & & & & & & & & & & & & & & & & & & & & & & & & & & u.&.a.      ",
"                    $.s.& & & & & & & & & & & & & & & & & & & & & & & & & d.f.          ",
"                      g.z W & & & & & & & & & & & & & & & & & & & & & & h.j.            ",
"                        H k.l.b & & & & & & & & & & & & & & & & & l z.x.c.              ",
"                        Y v.;.b.& & & & & & & & & & & & & & & & & i # r ,               ",
"                              v.n.o P m.& & & & & & & & & u.X M.X (                     ",
"                                      N.B.V.V.V.V.V.V.V.B.C.                            ",
"                                      > h h h h h h h h h >                             "
};
