/* XPM */
static char *result[] = {
/* columns rows colors chars-per-pixel */
"50 50 57 1 ",
"  c black",
". c #040100",
"X c #180400",
"o c #240600",
"O c #230500",
"+ c #0C0200",
"@ c #570D00",
"# c #821300",
"$ c #7F1300",
"% c #7E1200",
"& c #010000",
"* c #030000",
"= c #2D0A02",
"- c #9B240A",
"; c #D8330E",
": c #D4320E",
"> c #D3320E",
", c #340400",
"< c #7A1C07",
"1 c #CB543A",
"2 c #F47356",
"3 c #F27155",
"4 c #F17054",
"5 c #110300",
"6 c #721200",
"7 c #CA3B1A",
"8 c #ED8771",
"9 c #FAB0A2",
"0 c #F9AE9F",
"q c #F9AD9E",
"w c #1D0400",
"e c #531304",
"r c #AB3920",
"t c #EE6C4F",
"y c #FBA694",
"u c #FEC4B9",
"i c #FDC2B7",
"p c #FDC1B6",
"a c #020000",
"s c #4D0B00",
"d c #AB2709",
"f c #DE6B52",
"g c #F8A493",
"h c #FCB7AA",
"j c #FCBEB3",
"k c #FCBEB2",
"l c #030100",
"z c #640E00",
"x c #D5310C",
"c c #F6826A",
"v c #FDBFB3",
"b c #FDC0B5",
"n c #FCBCB0",
"m c #610D00",
"M c #D0300C",
"N c #F48067",
"B c white",
/* pixels */
"                                                  ",
"      .XoOOOOOOOOOOOOOOOOOOOOOOOOOOOOOOOOoX.      ",
"      +@#$%%%%%%%%%%%%%%%%%%%%%%%%%%%%%%$#@+      ",
"    &*=-;:>>>>>>>>>>>>>>>>>>>>>>>>>>>>>>:;-=*&    ",
"     ,<123444444444444444444444444444444321<,     ",
"    567890qqqqqqqqqqqqqqqqqqqqqqqqqqqqqq098765    ",
"  &wertyuippppppppppppppppppppppppppppppiuytrew&  ",
"  asdfghjkkkkkkkkkkkkkkkkkkkkkkkkkkkkkkkkjhgfdsa  ",
"  lzxcvbnnnnnnnnnnnnnnnnnnnnnnnnnnnnnnnnnnbvcxzl  ",
"  lzxcvbnnnnnnnnnnnnnnnnnnnnnnnnnnnnnnnnnnbvcxzl  ",
"  lmMNnvnnnnnnnnnnnnnnnnnnnnnnnnnnnnnnnnnnvnNMml  ",
"  lmMNnvnnnnnnnnnnnnnnnnnnnnnnnnnnnnnnnnnnvnNMml  ",
"  lmMNnvnnnnnnnnnnnnnnnnnnnnnnnnnnnnnnnnnnvnNMml  ",
"  lmMNnvnnnnnnnnnnnnnnnnnnnnnnnnnnnnnnnnnnvnNMml  ",
"  lmMNnvnnnnnnnnnnnnnnnnnnnnnnnnnnnnnnnnnnvnNMml  ",
"  lmMNnvnnnnnnnnnnnnnnnnnnnnnnnnnnnnnnnnnnvnNMml  ",
"  lmMNnvnnnnnnnnnnnnnnnnnnnnnnnnnnnnnnnnnnvnNMml  ",
"  lmMNnvnnnnnnnnnnnnnnnnnnnnnnnnnnnnnnnnnnvnNMml  ",
"  lmMNnvnnnnnnnnnnnnnnnnnnnnnnnnnnnnnnnnnnvnNMml  ",
"  lmMNnvnnnnnnnnnnnnnnnnnnnnnnnnnnnnnnnnnnvnNMml  ",
"  lmMNnvnnnnnnnnnnnnnnnnnnnnnnnnnnnnnnnnnnvnNMml  ",
"  lmMNnvnnnnnnnnnnnnnnnnnnnnnnnnnnnnnnnnnnvnNMml  ",
"  lmMNnvnnnnnnnnnnnnnnnnnnnnnnnnnnnnnnnnnnvnNMml  ",
"  lmMNnvnnnnnnnnnnnnnnnnnnnnnnnnnnnnnnnnnnvnNMml  ",
"  lmMNnvnnnnnnnnnnnnnnnnnnnnnnnnnnnnnnnnnnvnNMml  ",
"  lmMNnvnnnnnnnnnnnnnnnnnnnnnnnnnnnnnnnnnnvnNMml  ",
"  lmMNnvnnnnnnnnnnnnnnnnnnnnnnnnnnnnnnnnnnvnNMml  ",
"  lmMNnvnnnnnnnnnnnnnnnnnnnnnnnnnnnnnnnnnnvnNMml  ",
"  lmMNnvnnnnnnnnnnnnnnnnnnnnnnnnnnnnnnnnnnvnNMml  ",
"  lmMNnvnnnnnnnnnnnnnnnnnnnnnnnnnnnnnnnnnnvnNMml  ",
"  lmMNnvnnnnnnnnnnnnnnnnnnnnnnnnnnnnnnnnnnvnNMml  ",
"  lmMNnvnnnnnnnnnnnnnnnnnnnnnnnnnnnnnnnnnnvnNMml  ",
"  lmMNnvnnnnnnnnnnnnnnnnnnnnnnnnnnnnnnnnnnvnNMml  ",
"  lmMNnvnnnnnnnnnnnnnnnnnnnnnnnnnnnnnnnnnnvnNMml  ",
"  lmMNnvnnnnnnnnnnnnnnnnnnnnnnnnnnnnnnnnnnvnNMml  ",
"  lmMNnvnnnnnnnnnnnnnnnnnnnnnnnnnnnnnnnnnnvnNMml  ",
"  lmMNnvnnnnnnnnnnnnnnnnnnnnnnnnnnnnnnnnnnvnNMml  ",
"  lmMNnvnnnnnnnnnnnnnnnnnnnnnnnnnnnnnnnnnnvnNMml  ",
"  lmMNnvnnnnnnnnnnnnnnnnnnnnnnnnnnnnnnnnnnvnNMml  ",
"  lmMNnvnnnnnnnnnnnnnnnnnnnnnnnnnnnnnnnnnnvnNMml  ",
"  lzxcvbnnnnnnnnnnnnnnnnnnnnnnnnnnnnnnnnnnbvcxzl  ",
"  lzxcvbnnnnnnnnnnnnnnnnnnnnnnnnnnnnnnnnnnbvcxzl  ",
"  asdfghjkkkkkkkkkkkkkkkkkkkkkkkkkkkkkkkkjhgfdsa  ",
"  &wertyuippppppppppppppppppppppppppppppiuytrew&  ",
"    567890qqqqqqqqqqqqqqqqqqqqqqqqqqqqqq098765    ",
"     ,<123444444444444444444444444444444321<,     ",
"    &*=-;:>>>>>>>>>>>>>>>>>>>>>>>>>>>>>>:;-=*&    ",
"      +@#$%%%%%%%%%%%%%%%%%%%%%%%%%%%%%%$#@+      ",
"      .XoOOOOOOOOOOOOOOOOOOOOOOOOOOOOOOOOoX.      ",
"                                                  "
};
