/* XPM */
static char *result[] = {
/* columns rows colors chars-per-pixel */
"30 30 162 2 ",
"   c #000000",
".  c #0C0100",
"X  c #140300",
"o  c #1B0100",
"O  c #180A01",
"+  c #150901",
"@  c #250100",
"#  c #2A0100",
"$  c #340200",
"%  c #3B0600",
"&  c #361D05",
"*  c #3A2005",
"=  c #440300",
"-  c #4C0400",
";  c #440B01",
":  c #4C0E02",
">  c #520500",
",  c #5D0400",
"<  c #5C0C01",
"1  c #640500",
"2  c #6F0500",
"3  c #6C0A00",
"4  c #740600",
"5  c #7C0700",
"6  c #730D00",
"7  c #7B0B00",
"8  c #691E0C",
"9  c #721703",
"0  c #442506",
"q  c #4A2909",
"w  c #572D09",
"e  c #6E200C",
"r  c #70210E",
"t  c #61360D",
"y  c #663C10",
"u  c #6D4011",
"i  c #7B4914",
"p  c #830B00",
"a  c #8D0D00",
"s  c #900B00",
"d  c #990D00",
"f  c #801000",
"g  c #9A1300",
"h  c #901D03",
"j  c #A71200",
"k  c #A91600",
"l  c #A41900",
"z  c #AA1900",
"x  c #B21400",
"c  c #B91000",
"v  c #B51B00",
"b  c #BB1C00",
"n  c #992306",
"m  c #8F3019",
"M  c #95341D",
"N  c #9F371E",
"B  c #A72203",
"V  c #B73903",
"C  c #BD310D",
"Z  c #A7391F",
"A  c #953A25",
"S  c #A33B22",
"D  c #C21D00",
"F  c #CB1800",
"G  c #D21D00",
"H  c #E51B00",
"J  c #C72100",
"K  c #C92C06",
"L  c #D42400",
"P  c #DB2600",
"I  c #D92C03",
"U  c #D52B02",
"Y  c #C4320C",
"T  c #D93107",
"R  c #D6360D",
"E  c #D93807",
"W  c #C43B19",
"Q  c #DD3A12",
"!  c #E82600",
"~  c #E22D02",
"^  c #E9360A",
"/  c #E73204",
"(  c #E13910",
")  c #EC3E13",
"_  c #975B1B",
"`  c #9A5C1C",
"'  c #A4631F",
"]  c #A34731",
"[  c #B14D34",
"{  c #AE6922",
"}  c #B26B23",
"|  c #BB7124",
" . c #EB441B",
".. c #C14528",
"X. c #C54C2D",
"o. c #DA4E2C",
"O. c #C04B30",
"+. c #DD5434",
"@. c #DE5B3A",
"#. c #E84720",
"$. c #EC4B22",
"%. c #E04F2B",
"&. c #E5522E",
"*. c #E45C3A",
"=. c #E65633",
"-. c #C27627",
";. c #C57928",
":. c #C87525",
">. c #D17B28",
",. c #EC603F",
"<. c #F3613E",
"1. c #BE6049",
"2. c #CD634A",
"3. c #D16146",
"4. c #C76751",
"5. c #C86B55",
"6. c #EB6342",
"7. c #F36442",
"8. c #F0694A",
"9. c #ED7355",
"0. c #E2765C",
"q. c #F0785B",
"w. c #F37556",
"e. c #D97C67",
"r. c #D4812B",
"t. c #F89835",
"y. c #F09434",
"u. c #DF8A77",
"i. c #DB8D7B",
"p. c #ED836A",
"a. c #EB8C77",
"s. c #EE917C",
"d. c #F49079",
"f. c #EB9986",
"g. c #E69988",
"h. c #FA9780",
"j. c #FA9B86",
"k. c #EEA18F",
"l. c #F6AA98",
"z. c #EEB0A2",
"x. c #EFB6A8",
"c. c #F2B7A9",
"v. c #F7B8AA",
"b. c #EEBEB2",
"n. c #F2BDB1",
"m. c #F8C0B3",
"M. c #F9C5B9",
"N. c #F6C9BF",
"B. c #FFCDC2",
"V. c #F5CAC1",
"C. c #F6D0C7",
"Z. c #F9D6CE",
"A. c #F7DAD3",
"S. c #F9DED7",
"D. c #F9DED8",
"F. c #FBE2DC",
"G. c #FCECE9",
"H. c #FCEBE7",
"J. c #FEF0EE",
"K. c #FEF6F4",
"L. c #FFFDFD",
"P. c None",
/* pixels */
"                                                      P.P.P.",
"                                      q y &     P.    P.P.P.",
"                      + + + + + + . & ` ;.u           P.P.P.",
"                    q ' -.-.| | | -.{ i 0 O             P.P.",
"                    0 ` } { -.y.t.r._ *                   P.",
"                          X w :.>.t                         ",
"        - p s 5 =       o , l E V ;       = 5 s p -         ",
"    o : S *.7.*.M ; @ # e X.,.,.O.8 $ # ; M @.6.*.S : o     ",
"  o 5 W f.F.J.A.u.Y c b 3.m.G.G.M.2.v c Y u.A.G.D.f.W 7 o   ",
"  @ d $.v.L.S.f.6./ H ! q.F.K.b.q.$.! H ) l.K.H.k.8.^ g #   ",
"  o 5 W g.V.p.I F b x v 2.b.c.*.G D v x C g.N.s.Q G b 6 o   ",
"    . ; Z &.) L a $ o @ 8 ..$./ b 1 @ o $ m o.) P d = o     ",
"        - 5 p 7 1 > - - , 2 5 7 6 , - - > 1 4 p 7 -         ",
"              o 9 Y ( R n % .   % n R ( Y 9 o               ",
"            - h 4.z.B.M.i.S a a Z u.n.B.x.5.n =             ",
"          . 5 T d.K.L.C.s. .H H =.M.L.H.c.w.I 5 .           ",
"          . 4 K s.F.c.+.I L L F +.n.F.a.Q P J 6 .           ",
"            @ < ] 0.<.~ x 3 = - r 1.9.$.G g < #             ",
"                - g v z 7 = o @ = 7 z v g -                 ",
"                  o o o > g b b g - o o o                   ",
"                    o > A e.h.j.u.A - o                     ",
"                    > b 9.Z.L.K.n.6.b >                     ",
"                    > D w.D.F.s.%.^ D ,                     ",
"                    # 6 [ g.d.#.F j 9 $                     ",
"                        ; B I L l =                         ",
"                        . $ - - % .                         ",
"                                                            ",
"                                                            ",
"                                                            ",
"                                                            "
};
