/* XPM */
static char *result[] = {
/* columns rows colors chars-per-pixel */
"45 45 79 1 ",
"  c black",
". c #010100",
"X c #020200",
"o c #2E2E00",
"O c #9E9E00",
"+ c #A0A000",
"@ c #A4A400",
"# c #8B8B00",
"$ c #0C0C00",
"% c #0F0F00",
"& c #5B5B00",
"* c #626200",
"= c #979700",
"- c yellow",
"; c #F3F300",
": c #767600",
"> c #5D5D00",
", c #646400",
"< c #4B4B00",
"1 c #191900",
"2 c #212100",
"3 c #555500",
"4 c #D0D000",
"5 c #323200",
"6 c #242400",
"7 c #101000",
"8 c #050500",
"9 c #9A9A00",
"0 c #E8E800",
"q c #FEFE00",
"w c #F9F900",
"e c #E3E300",
"r c #E5E500",
"t c #656500",
"y c #0D0D00",
"u c #949400",
"i c #ECEC00",
"p c #D8D800",
"a c #6D6D00",
"s c #181800",
"d c #7A7A00",
"f c #F4F400",
"g c #D7D700",
"h c #060600",
"j c #717100",
"k c #E6E600",
"l c #454500",
"z c #080800",
"x c #828200",
"c c #F5F500",
"v c #FDFD00",
"b c #4D4D00",
"n c #868600",
"m c #D1D100",
"M c #161600",
"N c #707000",
"B c #C8C800",
"V c #535300",
"C c #363600",
"Z c #CACA00",
"A c #3D3D00",
"S c #F1F100",
"D c #151500",
"F c #FBFB00",
"G c #AFAF00",
"H c #262600",
"J c #757500",
"K c #393900",
"L c #6E6E00",
"P c #353500",
"I c #3F3F00",
"U c #797900",
"Y c #E0E000",
"T c #CDCD00",
"R c #505000",
"E c #030300",
"W c #747400",
"Q c #A9A900",
"! c white",
/* pixels */
"                .XXXXXXXXXX                  ",
"                oO+++++++@#$                 ",
"            %&*&=---------;:>,<              ",
"          123;----------------4567           ",
"         8900q----------------wert           ",
"        yui----------------------pa          ",
"       sdf------------------------g&h        ",
"      %jq--------------------------klz       ",
"      xc---------------------------vkb       ",
"    Xnr------------------------------m&      ",
"   MN0--------------------------------BVh    ",
"   C;----------------------------------Z$    ",
"   AS----------------------------------ZD    ",
"  bBF----------------------------------SGH   ",
"  J-------------------------------------wK   ",
"  L-------------------------------------SP   ",
"  :-------------------------------------SI   ",
"XUY-------------------------------------FTR  ",
"EG----------------------------------------W  ",
"EQ----------------------------------------N  ",
"EQ----------------------------------------N  ",
"EQ----------------------------------------N  ",
"EQ----------------------------------------N  ",
"EQ----------------------------------------N  ",
"EQ----------------------------------------N  ",
"EQ----------------------------------------N  ",
"EG----------------------------------------W  ",
"XUY-------------------------------------FTR  ",
"  :-------------------------------------SI   ",
"  L-------------------------------------SP   ",
"  J-------------------------------------wK   ",
"  bBF----------------------------------SGH   ",
"   AS----------------------------------ZD    ",
"   C;----------------------------------Z$    ",
"   MN0--------------------------------BVh    ",
"    Xnr------------------------------m&      ",
"      xc---------------------------vkb       ",
"      %jq--------------------------klz       ",
"       sdf------------------------g&h        ",
"        yui----------------------pa          ",
"         8900q----------------wert           ",
"          123;----------------4567           ",
"            %&*&=---------;:>,<              ",
"                oO+++++++@#$                 ",
"                .XXXXXXXXXX                  "
};
