/* XPM */
static char *result[] = {
/* columns rows colors chars-per-pixel */
"48 48 82 1 ",
"  c black",
". c #010000",
"X c #010101",
"o c #020102",
"O c #030202",
"+ c #030203",
"@ c gray1",
"# c #040203",
"$ c #050203",
"% c #040304",
"& c #050304",
"* c #060304",
"= c #050405",
"- c #080405",
"; c #080406",
": c #090406",
"> c #090506",
", c #0A0507",
"< c #080607",
"1 c #080707",
"2 c #0C0608",
"3 c #0D0609",
"4 c #0D0709",
"5 c #0A0809",
"6 c #0F080B",
"7 c #0C0A0B",
"8 c #10080B",
"9 c #140A0E",
"0 c #170C10",
"q c #180D11",
"w c #190D12",
"e c #1A0D12",
"r c #1B0E13",
"t c #1C0E14",
"y c #1F1016",
"u c #191416",
"i c #1B1518",
"p c #1C1618",
"a c #1C1619",
"s c #1D1719",
"d c #1D171A",
"f c #1E181A",
"g c #201016",
"h c #201017",
"j c #211117",
"k c #221218",
"l c #231218",
"z c #231219",
"x c #241319",
"c c #25131A",
"v c #231C1F",
"b c #241D20",
"n c #261E21",
"m c #271F23",
"M c #281F23",
"N c #282023",
"B c #292024",
"V c #2A2125",
"C c #2B2226",
"Z c #2E2428",
"A c #2F2529",
"S c #30262A",
"D c #34292D",
"F c #34292E",
"G c #352A2E",
"H c #3B2E34",
"J c #3D3036",
"K c #46373D",
"L c #47383E",
"P c #4B3B42",
"I c #4C3C42",
"U c #4C3C43",
"Y c #4D3C43",
"T c #4E3D44",
"R c #503F46",
"E c #514047",
"W c #937B3D",
"Q c #C09344",
"! c #CCAA54",
"~ c #F2CA64",
"^ c #FFD569",
"/ c #FFF1CC",
/* pixels */
"                                                ",
"                                                ",
"                                                ",
"                                                ",
"                                                ",
"                                                ",
"                                                ",
"                                                ",
"                                                ",
"                                                ",
"                                                ",
"                                                ",
"                                                ",
"                                                ",
"                                                ",
"                                                ",
"                                                ",
"                                                ",
"                                                ",
"                                                ",
"                                                ",
"                 XO                             ",
"               8cccc>                           ",
"              njcccccF7                         ",
"            o9cQQQ///ccx5                       ",
"            qccQQQ///ccci                       ",
"           ucccQQQ///cccKaaap55<OX              ",
"          .cQQQccccccQQQccccccccccccr#          ",
"         #ccQQQccccccQQQccccccccccccccccc3      ",
"         #ccQQQccccccQQQccccccccccccccccc,      ",
"         #ccQQQcccEEEQQQQQQQQQQQQQQQQQQccy      ",
"         &ccQQQcccEEEQQQQQQQQQQQQQQQQQQccy      ",
"         :ccQQQcccEEEQQQQQQQQQQQQQQQQQQcc0      ",
"         -ccQQQcccEEE///cccccc^^^//////cc#      ",
"         ,ccQQQcccEEE///cccccc^^^//////cc#      ",
"         4ccQQQcccEEE///cccccc^^^//////cc#      ",
"         6cc^^^cccEEE^^^cccEEE^^^ccc///cc#      ",
"         2cc^^^cccEEE^^^cccE E^^^ccc///cc;      ",
"         -cc^^^cccEEE^^^cccU S^^^ccc///cc$@     ",
"          LEccc^^^^^^cccETI+ slccRLH^^^cc*      ",
"           Accc^^^^^^cccm    1echZ X!^^cc:      ",
"           Mccc^^^^^^ccgu    %tewd  W^~ #       ",
"            KYEccccckPJG      VDV    c          ",
"              Ccccccz<              *c          ",
"              bcccczy=              X&          ",
"               MFNvBf                           ",
"                                                ",
"                                                "
};
