/* XPM */
static char *result[] = {
/* columns rows colors chars-per-pixel */
"48 48 81 1 ",
"  c black",
". c #010000",
"X c #010001",
"o c #010101",
"O c #020202",
"+ c #030202",
"@ c #030203",
"# c gray1",
"$ c #040203",
"% c #040304",
"& c #070305",
"* c #060505",
"= c #070606",
"- c #080406",
"; c #0A0507",
": c #080607",
"> c #080707",
", c #090708",
"< c #0B0608",
"1 c #0E070A",
"2 c #0A0808",
"3 c #0B0909",
"4 c #0B090A",
"5 c #0C090A",
"6 c #0F080B",
"7 c #0D0B0C",
"8 c #0E0B0C",
"9 c #10080B",
"0 c #12090C",
"q c #12090D",
"w c #130A0D",
"e c #150B0F",
"r c #120F10",
"t c #130F11",
"y c #160C10",
"u c #190D11",
"i c #190D12",
"p c #1B0E13",
"a c #1C0F14",
"s c #1D0F14",
"d c #1E0F15",
"f c #161213",
"g c #171214",
"h c #181315",
"j c #191416",
"k c #1A1417",
"l c #1A1517",
"z c #1B1517",
"x c #1B1518",
"c c #1F191B",
"v c #201016",
"b c #221118",
"n c #231218",
"m c #241219",
"M c #24131A",
"N c #25131A",
"B c #20191C",
"V c #261E22",
"C c #271F22",
"Z c #281F23",
"A c #282023",
"S c #292024",
"D c #292124",
"F c #2A2125",
"G c #2B2225",
"H c #2C2226",
"J c #2C2327",
"K c #2E2428",
"L c #30262A",
"P c #31272B",
"I c #32272C",
"U c #3D3036",
"Y c #403338",
"T c #4F3E45",
"R c #514047",
"E c #C09344",
"W c #E0BB5C",
"Q c #F1C963",
"! c #FED469",
"~ c #FFD569",
"^ c #FFF1CC",
/* pixels */
"                                                ",
"                                                ",
"                                                ",
"                                                ",
"                                                ",
"                                                ",
"                                                ",
"                                                ",
"                                                ",
"                                                ",
"                                                ",
"                                                ",
"                                                ",
"                                                ",
"                                                ",
"                             X                  ",
"                           -Ny4                 ",
"                         >LNNNRHt               ",
"                       #NNNEEENNNc              ",
"                       xNNNEEENNNG              ",
"                o%7hkzJRNNNEEENNNRkf            ",
"             +&-MNNNNNNNEEENNNEEENNNK           ",
"            1NNNNNNNNNNNEEENNNEEENNNI           ",
"           gbNNNNNNNNNNNEEENNNEEENNND           ",
"           VNNNEEEEEEEEEEEENNNEEENNND           ",
"           ZNNNEEEEEEEEEEEENNNEEENNND           ",
"           ZNNNEEEEEEEEEEEENNNEEENNNS           ",
"           DNNN^^^^^^NNN~~~NNNEEENNNh           ",
"           DNNN^^^^^^NNN~~~NNNEEENNNf           ",
"           DNNN^^^^^^NNN~~~NNNEEENNNj           ",
"           DNNN^^^NNNNNN~~~NNN~~~NNND           ",
"           DNNN^^^NNNNNN~~~NNN~~~NNpA           ",
"           DNNN^^^NNNNNN~~~NNN~~!0<6k           ",
"           DNNN~~~NNNRUTvNN~~~NN;  5            ",
"           SNNN~~~NNmj ruNN~~~NN                ",
"           BNNN~~~dss5 3ewqQ~W  .               ",
"            CPYnNaFBl   42%XN                   ",
"              8iNe        o N                   ",
"              :696        o$o                   ",
"               O=,         *@                   ",
"                                                ",
"                                                ",
"                                                ",
"                                                ",
"                                                ",
"                                                ",
"                                                ",
"                                                "
};
