/* XPM */
static char *result[] = {
/* columns rows colors chars-per-pixel */
"48 48 6 1 ",
"  c #25131A",
". c #514047",
"X c #C09344",
"o c #FFD569",
"O c #FFF1CC",
"+ c None",
/* pixels */
"++++++++++++++++++++++++++++++++++++++++++++++++",
"++++++++++++++++++++++++++++++++++++++++++++++++",
"++++++++++++++++++++++++++++++++++++++++++++++++",
"++++++++++++++++++++++++++++++++++++++++++++++++",
"++++++++++++++++++++++++++++++++++++++++++++++++",
"++++++++++++++++++++++++++++++++++++++++++++++++",
"++++++++++++++++++++++++++++++++++++++++++++++++",
"++++++++++++++++++++++++++++++++++++++++++++++++",
"++++++++++++++++++++++++++++++++++++++++++++++++",
"++++++++++++++++++++++++++++++++++++++++++++++++",
"++++++++++++++++++++++++++++++++++++++++++++++++",
"++++++++++++++++++++++++++++++++++++++++++++++++",
"++++++++++++++++++++++++++++++++++++++++++++++++",
"++++++++++++++++++++++++++++++++++++++++++++++++",
"++++++++++++++++++++++++++++++++++++++++++++++++",
"++++++++++++++++++++++++++++++++++++++++++++++++",
"++++++++++++++++++++++++++++++++++++++++++++++++",
"++++++++++++++++++++++++++++++++++++++++++++++++",
"++++++++++++++++++++++++++++++++++++++++++++++++",
"++++++++++++++++++++++++++++++++++++++++++++++++",
"++++++++++++++++++++++++++++++++++++++++++++++++",
"++++++++++++++++++++++++++++++++++++++++++++++++",
"++++++++++++++++    ++++++++++++++++++++++++++++",
"+++++++++++++++      .++++++++++++++++++++++++++",
"+++++++++++++  XXXOOO   ++++++++++++++++++++++++",
"++++++++++++   XXXOOO   ++++++++++++++++++++++++",
"++++++++++++   XXXOOO   .+++++++++++++++++++++++",
"+++++++++++ XXX      XXX             +++++++++++",
"++++++++++  XXX      XXX                 +++++++",
"++++++++++  XXX      XXX                 +++++++",
"++++++++++  XXX   ...XXXXXXXXXXXXXXXXXX   ++++++",
"++++++++++  XXX   ...XXXXXXXXXXXXXXXXXX   ++++++",
"++++++++++  XXX   ...XXXXXXXXXXXXXXXXXX   ++++++",
"++++++++++  XXX   ...OOO      oooOOOOOO  +++++++",
"++++++++++  XXX   ...OOO      oooOOOOOO  +++++++",
"++++++++++  XXX   ...OOO      oooOOOOOO  +++++++",
"++++++++++  ooo   ...ooo   ...ooo   OOO  +++++++",
"++++++++++  ooo   ...ooo   .+.ooo   OOO  +++++++",
"++++++++++  ooo   ...ooo   .+.ooo   OOO  +++++++",
"++++++++++..   oooooo   ...+++   ...ooo  +++++++",
"+++++++++++.   oooooo   ++++++   .++ooo  +++++++",
"++++++++++++   oooooo   ++++++   +++ooo+++++++++",
"++++++++++++...      ...++++++...++++ ++++++++++",
"++++++++++++++.      ++++++++++++++++ ++++++++++",
"+++++++++++++++      +++++++++++++++++++++++++++",
"++++++++++++++++.++.++++++++++++++++++++++++++++",
"++++++++++++++++++++++++++++++++++++++++++++++++",
"++++++++++++++++++++++++++++++++++++++++++++++++"
};
