/* XPM */
static char *result[] = {
/* columns rows colors chars-per-pixel */
"50 50 138 2 ",
"   c #000000",
".  c #070709",
"X  c #0A0A0C",
"o  c #0E0E10",
"O  c #111114",
"+  c #161619",
"@  c #1A1A1E",
"#  c #1E1E22",
"$  c #222227",
"%  c #26262C",
"&  c #28282E",
"*  c #2D2D34",
"=  c #303037",
"-  c #33333A",
";  c #3C3C45",
":  c #3F3F48",
">  c #3E404A",
",  c #41424C",
"<  c #4A4A55",
"1  c #4C4E59",
"2  c #51515D",
"3  c #4F5562",
"4  c #555562",
"5  c #595966",
"6  c #5E5E6C",
"7  c #60606E",
"8  c #646472",
"9  c #6C6C7C",
"0  c #FF0001",
"q  c #FE0708",
"w  c #FE080A",
"e  c #FC1114",
"r  c #FC1619",
"t  c #FB1B1F",
"y  c #FB1D21",
"u  c #FA2126",
"i  c #FA242A",
"p  c #F9282E",
"a  c #F82D34",
"s  c #F7353C",
"d  c #F83239",
"f  c #F63B43",
"g  c #F63F49",
"h  c #F5434D",
"j  c #F54651",
"k  c #F44B56",
"l  c #F44D59",
"z  c #F4515D",
"x  c #F55663",
"c  c #F25966",
"v  c #F25A68",
"b  c #F3616F",
"n  c #EF6C7C",
"m  c #F06574",
"M  c #737384",
"N  c #76788A",
"B  c #7A7A8B",
"V  c #7D7D90",
"C  c #EE7182",
"Z  c #EE7A8C",
"A  c #F37688",
"S  c #EC7E91",
"D  c #838396",
"F  c #86869A",
"G  c #87889C",
"H  c #89899E",
"J  c #8C8CA1",
"K  c #9090A5",
"L  c #9494AA",
"P  c #9898AF",
"I  c #949CB3",
"U  c #9B9CB3",
"Y  c #9FA4BD",
"T  c #A0A0B7",
"R  c #A2A3BB",
"E  c #EC8296",
"W  c #EB8599",
"Q  c #EB899E",
"!  c #F48194",
"~  c #EA8DA2",
"^  c #EA91A6",
"/  c #EA95AB",
"(  c #E899AF",
")  c #F097AD",
"_  c #E79FB6",
"`  c #E89CB3",
"'  c #F19BB2",
"]  c #E7A3BB",
"[  c #EFA6BE",
"{  c #F0A2BA",
"}  c #AAAAC3",
"|  c #AEAEC8",
" . c #ABB5CF",
".. c #B1B1CC",
"X. c #ADB7D2",
"o. c #B7BAD6",
"O. c #BABAD5",
"+. c #BBBDD9",
"@. c #E5ABC5",
"#. c #E5AEC8",
"$. c #E5B1CB",
"%. c #E9B1CB",
"&. c #E4B6D1",
"*. c #E4BAD5",
"=. c #E8B9D4",
"-. c #E3BEDB",
";. c #ECBEDA",
":. c #C1C1DE",
">. c #E2C1DE",
",. c #C5C5E2",
"<. c #C9C9E6",
"1. c #CDCDEC",
"2. c #D6C7E4",
"3. c #D9C7E4",
"4. c #D7C9E6",
"5. c #DAC9E7",
"6. c #D6CCEA",
"7. c #DCCEED",
"8. c #D6D0EF",
"9. c #CFD8F8",
"0. c #D5D5F5",
"q. c #DED5F5",
"w. c #D7D7F8",
"e. c #D0DAFA",
"r. c #DEDDFE",
"t. c #E2C5E2",
"y. c #E1C9E7",
"u. c #E1CCEA",
"i. c #EACEED",
"p. c #E0D0EF",
"a. c #E0D3F2",
"s. c #E1D9F9",
"d. c #DDE3FF",
"f. c #DCEBFF",
"g. c #E3E3FF",
"h. c #E4EAFF",
"j. c #EBEBFF",
"k. c #F0F0FF",
/* pixels */
"                                                                                                    ",
"                                                                                                    ",
"                                                                                                    ",
"                                                                                                    ",
"                                                                                                    ",
"                                                                                                    ",
"                                . O & = = = = = = - - = & + .                                       ",
"                                X ; M L U L L L L L P L N , X                                       ",
"                      X o + o O * 9 ..w.s.r.r.w.w.r.r.w.o.M = + O + o X                             ",
"                      & 1 9 9 9 B R 1.g.j.h.g.h.h.g.j.g.1.R B 9 9 9 2 & .                           ",
"                    + 4 P :.1.<.1.8.w.r.r.s.s.d.s.r.r.g.r.6.<.<.1.,.U 4 @                           ",
"                + * 4 H :.g.j.h.g.d.g.r.r.d.r.r.g.r.r.r.r.g.g.h.j.g.:.J 5 = +                       ",
"              X ; B } ,.w.g.g.g.g.d.s.d.r.r.d.r.r.r.d.d.r.d.g.g.g.g.w.<.| V , X                     ",
"          X + - 9 | r.g.g.r.s.r.r.r.r.r.r.r.s.d.r.r.r.s.r.r.r.r.g.r.r.g.r...M - + X                 ",
"        X * 6 F | 1.g.g.r.r.r.d.d.s.r.r.d.r.r.d.s.d.r.r.r.r.r.r.r.r.d.g.g.6. .H 7 * X               ",
"        o 1 P 1.g.r.r.r.r.r.r.r.r.d.r.r.s.r.r.r.r.r.r.r.r.r.r.r.r.r.r.r.r.r.d.6.U 2 +               ",
"        o 4 R g.j.g.r.r.r.d.d.d.d.d.f.d.d.r.s.r.r.r.r.d.d.d.d.d.d.r.r.r.s.g.j.s.| 5 +               ",
"        O 2 R w.h.g.r.r.r.r.r.r.r.r.r.r.r.r.d.r.d.r.r.r.d.r.r.d.r.r.r.r.r.g.h.r.R 4 O               ",
"        X 1 T w.h.s.r.d.r.s.t.$.] ] ] #.-.a.r.d.r.q.-.#.] ] ] $.t.s.r.d.r.d.g.w.R 4 o               ",
"        X 1 U w.h.g.r.d.d.u.` m h s g c ~ >.d.f.g.t.~ v g s h m ( u.d.d.r.g.h.w.R 2 X               ",
"    . X * 8 } w.h.g.s.d.d.t.E s q 0 0 u m &.d.f.d.*.n u 0 0 0 a S t.d.d.d.g.g.w.| 8 * o .           ",
"  X % 1 B U :.w.s.g.d.d.d.t.Z i 0 0 0 e b $.d.f.d.&.m r 0 0 0 u C >.d.d.r.s.g.r.,.R B 2 & X         ",
"  X , H ,.w.r.r.g.r.r.d.d.t.E f w 0 0 i n $.d.f.r.*.C p 0 0 w s S t.d.d.r.r.d.r.r.w.<.L < o         ",
"  o 1 T r.j.g.r.r.r.r.d.d.u.] n z j l m / 3.s.f.d.t.( m l j z n ` u.d.d.d.r.d.s.g.j.r.R 2 O         ",
"  o < P w.h.s.s.r.r.r.r.d.r.y.*.#.#.$.&.t.q.r.d.r.q.t.*.$.#.#.*.u.s.r.r.r.r.r.r.s.h.w.R 2 o         ",
"  o < P 0.h.g.g.r.d.g.r.r.r.d.d.d.d.d.d.r.g.d.d.r.d.d.d.d.d.d.d.d.d.r.d.d.d.r.r.g.h.w.T 2 O         ",
"  o < P w.g.g.r.d.d.d.f.d.f.d.d.d.d.d.d.d.d.d.d.d.d.d.d.d.d.d.d.f.d.f.d.d.d.d.r.g.h.w.T 1 O         ",
"  o < P 0.g.g.r.s.p.u.5.u.u.a.r.r.d.d.r.q.p.u.u.u.p.q.r.d.r.r.r.a.u.y.7.u.p.s.r.s.h.w.R 1 O         ",
"  X < P 0.j.h.r.*.~ C m n Z ] u.d.f.f.q.#.W n m n E @.a.f.f.d.u.] E n m C Q *.s.h.j.w.Y 1 O         ",
"  X < P 0.h.h.5.^ z i e r s n $.r.d.d.>.E h y e y g S -.r.f.d.$.C s r e u k ^ u.g.j.w.U 2 o         ",
"  O < I 0.i.%.^ C z h s s j m E / ` ( Q n l f s f k n Q ( ` ( W m j f s g z n ^ %.i.8.R 2 O         ",
"  X < Y 3.{ m h x E ` @.] / C k s a s h m ~ _ @.] ~ m h s a s k C ^ ] ] ] E v h b { 4.R 3 O         ",
"  X 1 Y 2.' x f m @.r.f.d.y.~ l i r y g Z *.d.f.d.>.S g y r i j ~ y.g.f.r.#.m s z ' 2.Y 3 O         ",
"  O < I 7.;./ W ` t.d.f.f.s.=.) ! A Z W #.7.d.f.d.a.#.Q Z A ! ) =.s.f.f.d.y.] E / ;.7.R 2 O         ",
"  o < I 0.g.s.q.s.s.r.r.d.w.w.6.2.2.7.q.q.r.r.r.r.r.q.a.7.3.2.6.0.r.r.d.r.r.s.a.s.g.q.T 2 o         ",
"  o < U w.j.h.d.d.r.d.g.g.r.+.U I X.0.h.h.g.r.r.r.d.h.j.9.X.I I O.w.g.g.r.r.d.d.h.j.r.R 2 O         ",
"  o < P w.j.g.d.d.r.r.g.g.1.H 1 : M o.s.h.s.d.s.r.d.g.g.+.N , < F <.g.g.d.r.r.d.g.j.w.T 2 O         ",
"  X - M R :.0.g.g.g.r.1.+.L 5 # O : D  .<.w.g.g.g.w.<...G , O @ 2 L o.6.r.g.g.r.w.:.} B ; X         ",
"  . + * 2 D +.s.k.j.w.} 9 , # X . + - 6 P <.h.k.h.6.P 6 - @ . X # : 9 R 0.j.k.g.o.F 2 * + .         ",
"        O < K :.0.6...B - .           # 6 T ,.0.<.R 8 $           . * M | 1.0.:.L 1 +               ",
"          $ < 9 M M 7 : +             X * 5 9 N 9 5 = X             O ; 6 M M 9 1 %                 ",
"          . o + + + + X .               X O + + + + X               . X O + + + O .                 ",
"                                                                                                    ",
"                                                                                                    ",
"                                                                                                    ",
"                                                                                                    ",
"                                                                                                    ",
"                                                                                                    ",
"                                                                                                    ",
"                                                                                                    "
};
