/* XPM */
static char *result[] = {
/* columns rows colors chars-per-pixel */
"50 50 29 1 ",
"  c #050527",
". c #06062E",
"X c #090949",
"o c #0A0A4F",
"O c #0A0A50",
"+ c #0C0C5F",
"@ c #0E0E6F",
"# c #10107F",
"$ c #111180",
"% c #121288",
"& c #12128C",
"* c #131393",
"= c #131394",
"- c #131396",
"; c #1515A3",
": c #1515A4",
"> c #1515A6",
", c #1616AB",
"< c #1818BD",
"1 c #1919BF",
"2 c #1919C0",
"3 c #1A1AC7",
"4 c #1B1BCE",
"5 c #1B1BD1",
"6 c #1C1CD8",
"7 c #1D1DDE",
"8 c #1D1DE0",
"9 c #1D1DE1",
"0 c None",
/* pixels */
"00000000000000000000000000000000000000000000000000",
"00000000000000000000000000000000000000000000000000",
"00000000000000000000000000000000000000000000000000",
"00000000000000000000000000000000000000000000000000",
"000000000000000000000000000000000000oooOO000000000",
"00000000021<<<<<<<<<<<<<<<<<<<<<<<<<<<<12@00000000",
"00000000098777777777777777777777777777789= 0000000",
"0000000000000000000000000000000000000%%%%&$0000000",
"0000000000000000000000000000000000000000003+000000",
"000000000000000000000000000000000000000000,#000000",
"0000000000000000000000000000000000000000000-*00000",
"0000040000000000000000000000000000000000000;400000",
"0000060000000000000000000000000000000000000>600000",
"0000050000000000000000000000000000000000000:500000",
"0000050000000000000000000000000000000000000:500000",
"0000050000000000000000000000000000000000000:500000",
"0000050000000000000000000000000000000000000:500000",
"0000050000000000000000000000000000000000000:500000",
"0000050000000000000000000000000000000000000:500000",
"0000050000000000000000000000000000000000000:500000",
"0000050000000000000000000000000000000000000:500000",
"0000050000000000000000000000000000000000000:500000",
"0000050000000000000000000000000000000000000:500000",
"0000050000000000000000000000000000000000000:500000",
"0000050000000000000000000000000000000000000:500000",
"0000050000000000000000000000000000000000000:500000",
"0000050000000000000000000000000000000000000:500000",
"0000050000000000000000000000000000000000000:500000",
"0000050000000000000000000000000000000000000:500000",
"0000050000000000000000000000000000000000000:500000",
"0000050000000000000000000000000000000000000:500000",
"0000050000000000000000000000000000000000000:500000",
"0000050000000000000000000000000000000000000:500000",
"0000050000000000000000000000000000000000000:500000",
"0000050000000000000000000000000000000000000:500000",
"0000050000000000000000000000000000000000000:500000",
"0000050000000000000000000000000000000000000:500000",
"0000060000000000000000000000000000000000000>600000",
"0000040000000000000000000000000000000000000;400000",
"0000000000000000000000000000000000000000000-000000",
"00000000000000000000000000000000000000000X,0000000",
"00000003000000000000000000000000000000000030000000",
"00000000000000000000000000%%%00000%%%%%%%000000000",
"00000000=98777777777777777777777777777789=00000000",
"00000000021<<<<<00000<<<<<<<<<<<<<<<<<<12000000000",
"000000000000000000000000000000000000oooOO.00000000",
"00000000000000000000000000000000000000000000000000",
"00000000000000000000000000000000000000000000000000",
"00000000000000000000000000000000000000000000000000",
"00000000000000000000000000000000000000000000000000"
};
