/* XPM */
static char *_be337069cfe45f7e184c981133f0281Rcx10p0KF7eCFkWI[] = {
/* columns rows colors chars-per-pixel */
"50 50 134 2 ",
"   c None",
".  c #320F13",
"X  c #331013",
"o  c #351014",
"O  c #361115",
"+  c #381116",
"@  c #381216",
"#  c #3A1217",
"$  c #3B1217",
"%  c #341618",
"&  c #3C1318",
"*  c #3D1418",
"=  c #3F1419",
"-  c #3E161A",
";  c #3E2121",
":  c #411318",
">  c #401419",
",  c #401519",
"<  c #40151A",
"1  c #41151A",
"2  c #43161B",
"3  c #44151B",
"4  c #44161B",
"5  c #47171C",
"6  c #49171D",
"7  c #43181C",
"8  c #4B191E",
"9  c #4D191F",
"0  c #4E191F",
"q  c #4D1A1F",
"w  c #60151E",
"e  c #511B21",
"r  c #501C21",
"t  c #581E24",
"y  c #5A1E25",
"u  c #5B1F25",
"i  c #402424",
"p  c #4F2124",
"a  c #512727",
"s  c #5E2027",
"d  c #5F262A",
"f  c #542E2C",
"g  c #593530",
"h  c #5D3433",
"j  c #5F3432",
"k  c #662025",
"l  c #612128",
"z  c #622128",
"x  c #633634",
"c  c #633734",
"v  c #6E3E3E",
"b  c #7D3E3B",
"n  c #71433E",
"m  c #734F46",
"M  c #784F49",
"N  c #6A5044",
"B  c #725852",
"V  c #775C53",
"C  c #7B6253",
"Z  c #7E6856",
"A  c #F22136",
"S  c #875248",
"D  c #846355",
"F  c #876D5A",
"G  c #857361",
"H  c #8C7560",
"J  c #897267",
"K  c #8D7A62",
"L  c #8D7B62",
"P  c #8E7B63",
"I  c #8E7C63",
"U  c #8F7C63",
"Y  c #8F7C64",
"T  c #8A7369",
"R  c #8B7369",
"E  c #8B746A",
"W  c #917767",
"Q  c #947E68",
"!  c #917B6C",
"~  c #9A7A6C",
"^  c #967F71",
"/  c #D64E52",
"(  c #D05254",
")  c #D95456",
"_  c #938068",
"`  c #95826A",
"'  c #98866E",
"]  c #99866E",
"[  c #988173",
"{  c #9B8675",
"}  c #9D8A72",
"|  c #9F8A77",
" . c #9F8D75",
".. c #A08C7A",
"X. c #A29078",
"o. c #A49179",
"O. c #A5937B",
"+. c #A5917D",
"@. c #A6937C",
"#. c #A6947C",
"$. c #A7957D",
"%. c #A5967E",
"&. c #A8957D",
"*. c #AA947F",
"=. c #A99582",
"-. c #AD9A83",
";. c #AD9B83",
":. c #AA9884",
">. c #AF9D85",
",. c #AF9C87",
"<. c #B09D87",
"1. c #B09E87",
"2. c #B19E87",
"3. c #B09D88",
"4. c #B2A089",
"5. c #B3A18A",
"6. c #B4A28B",
"7. c #B7A28D",
"8. c #B7A58E",
"9. c #B8A48E",
"0. c #B9A790",
"q. c #BAA891",
"w. c #BCA992",
"e. c #BCAA93",
"r. c #BDAB94",
"t. c #BEAC95",
"y. c #BFAE96",
"u. c #C49887",
"i. c #C0AE96",
"p. c #CBAB97",
"a. c #CEAD99",
"s. c #CFAD99",
"d. c #C8B79F",
"f. c #CBB7A3",
/* pixels */
"                                                                                                    ",
"                                                                                                    ",
"                                                                                                    ",
"                                                                                                    ",
"                                                                                                    ",
"                                                                                                    ",
"                                                                                                    ",
"                                                                                                    ",
"                                                                                                    ",
"                                                                                                    ",
"                                                                                                    ",
"                                                                                                    ",
"                                                                                                    ",
"                                                                                                    ",
"                                                                                                    ",
"                                          l l l l l l l l l                                         ",
"                                      l l l l l l l l l l l l                                       ",
"                                    l l l s l y t t 4 2 2 e s l                                     ",
"                                    l l l s 8 $ $ O O . . O = e                                     ",
"                                      l 8 $ 2 4 7 r 4 & 2 9 o *                                     ",
"                                            $ g S b p k w 2 .                                       ",
"                                              %.) / G ( A                                           ",
"                                              r.a.a.d.p.u.                                          ",
"                                          r.y...E R R J :.                                          ",
"                                        r.e.r.{ i B % ; =.e.                                        ",
"                                      4.i.-.%.0.! f.[ ^ ,.o.2.                                      ",
"                                    K X.*.H >.y.y.r.r.y.r.} ` 8.                                    ",
"                                    n Q D x 3.r.e.r.r.r.r.  I &.                                    ",
"                                    0 c c m 7.r.r.r.r.r.r.i.N C ~                                   ",
"                                      2 : M 9.r.r.r.r.r.r.y.V = d                                   ",
"                                            e.y.r.r.e.r.e.q.3.                                      ",
"                                            r.-.4.r.r.y.6.]                                         ",
"                                          r.r.2.X.X.2.X.Q K                                         ",
"                                          r.e.e.o.U K K K K                                         ",
"                                          e.e.%.Q K Y U ] %.                                        ",
"                                          v W F       Z | +.                                        ",
"                                          6 a           h f                                         ",
"                                                                                                    ",
"                                                                                                    ",
"                                                                                                    ",
"                                                                                                    ",
"                                                                                                    ",
"                                                                                                    ",
"                                                                                                    ",
"                                                                                                    ",
"                                                                                                    ",
"                                                                                                    ",
"                                                                                                    ",
"                                                                                                    ",
"                                                                                                    "
};
