/* XPM */
static char *_1f6086b28f74368ed24a972072f74efLXJPqjQn5nSnf9Ro[] = {
/* columns rows colors chars-per-pixel */
"50 50 150 2 ",
"   c None",
".  c #010000",
"X  c #0E0604",
"o  c #0B0805",
"O  c #0D0E09",
"+  c #140705",
"@  c #1F0606",
"#  c #150907",
"$  c #1C0907",
"%  c #1C0C09",
"&  c #13110B",
"*  c #1D110B",
"=  c #1D1A15",
"-  c #200504",
";  c #2B0607",
":  c #2F0907",
">  c #2F0708",
",  c #260C0A",
"<  c #2B0C0A",
"1  c #300906",
"2  c #3D0907",
"3  c #330608",
"4  c #330C0B",
"5  c #3B0C0B",
"6  c #24140E",
"7  c #2B130D",
"8  c #26190E",
"9  c #33120E",
"0  c #3C110E",
"q  c #261911",
"w  c #2D1911",
"e  c #361510",
"r  c #3E1311",
"t  c #331B13",
"y  c #3F1814",
"u  c #2D2417",
"i  c #2A231A",
"p  c #332316",
"a  c #3D2215",
"s  c #372518",
"d  c #3E2519",
"f  c #322819",
"g  c #3E2B1B",
"h  c #3F382C",
"j  c #440E0C",
"k  c #490D0B",
"l  c #520E0E",
"z  c #5C0F0F",
"x  c #45110E",
"c  c #48110E",
"v  c #57140F",
"b  c #451512",
"n  c #4B1412",
"m  c #441B14",
"M  c #4B1915",
"N  c #541413",
"B  c #5A1312",
"V  c #531A15",
"C  c #5C1A16",
"Z  c #551D18",
"A  c #5B1E1A",
"S  c #621615",
"D  c #631A17",
"F  c #621D19",
"G  c #691E1A",
"H  c #721A19",
"J  c #462317",
"K  c #43271B",
"L  c #4B251B",
"P  c #462B1C",
"I  c #4C2C1C",
"U  c #572117",
"Y  c #53241B",
"T  c #5B231C",
"R  c #522B1E",
"E  c #5D2A1D",
"W  c #65221D",
"Q  c #6C231C",
"!  c #612A1E",
"~  c #6B291F",
"^  c #71231C",
"/  c #542D21",
"(  c #5C2B20",
")  c #453324",
"_  c #4D3322",
"`  c #4B3925",
"'  c #41352A",
"]  c #4F3C29",
"[  c #523321",
"{  c #583724",
"}  c #523B26",
"|  c #5A3926",
" . c #523D29",
".. c #463E31",
"X. c #503D30",
"o. c #672321",
"O. c #682621",
"+. c #632C21",
"@. c #6A2B23",
"#. c #732523",
"$. c #7B2521",
"%. c #732921",
"&. c #762D28",
"*. c #792D28",
"=. c #643223",
"-. c #6C3325",
";. c #603A27",
":. c #6D3728",
">. c #663D29",
",. c #6C3D2B",
"<. c #723F2B",
"1. c #743B31",
"2. c #7C3C32",
"3. c #54412B",
"4. c #5C442D",
"5. c #5B4A32",
"6. c #63432D",
"7. c #6B432D",
"8. c #74442E",
"9. c #6C4730",
"0. c #604C32",
"q. c #684930",
"w. c #724C33",
"e. c #635036",
"r. c #69543B",
"t. c #6C533F",
"y. c #7E5537",
"u. c #725338",
"i. c #745339",
"p. c #765338",
"a. c #72563C",
"s. c #7D5438",
"d. c #78573D",
"f. c #785A3C",
"g. c #7E5A3C",
"h. c #6C5745",
"j. c #6D5B45",
"k. c #755D49",
"l. c #6F604D",
"z. c #7E6349",
"x. c #7E6549",
"c. c #7B644F",
"v. c #7E6852",
"b. c #8F3A32",
"n. c #8B4237",
"m. c #836141",
"M. c #846344",
"N. c #84684B",
"B. c #836B50",
"V. c #897860",
/* pixels */
"                                                                                                    ",
"                                                                                                    ",
"                                                                                                    ",
"                                                        ;                                           ",
"                                                        ;                                           ",
"                                                      ; ;                                           ",
"                                                      ; >                                           ",
"                                                      3 3                                           ",
"                                                      j 5                                           ",
"                                                      j 5     .                                     ",
"                                                      j 5     .                                     ",
"                                                    < n j     .                                     ",
"                                                    5 C b     .                                     ",
"                                                    b G n   . .                                     ",
"                                                    V Q n   . .                                     ",
"                                                  4 F G b . . .                                     ",
"                                                  0 ~ W 9 . . .                                     ",
"                                                  b $.C < & .                                       ",
"                                                  Z ^ Z % 8 7                                       ",
"                            _ I       R         4 F G b o . 7 K       e                             ",
"                    7     ] } 3.  ' h.v.        5 #.@.y o . . ) } 3.3.K                             ",
"                    f 4.3.[ 3.`  .k.V...  .     b ^ F / ] h ..5.} } 5.5.s # .                       ",
"                  6 ` 3.[ } _ { d.B.N.i . .   , n F M t k.c.h.e.e.3._ 4.} t o .                     ",
"                  p ` J I P | f.z.m.M.i . .   < N n 4 X = h.N.w.6.4.3.[ } P 8 o .                   ",
"                6 K J L P >.p.f.g.y.s.) . . 7 4 V b 0 % . ` a.a.u.7.{ { I I J 8 6 #                 ",
"              * t J L L ,.w.w.w.8.<.7.>.t # b n F C n m t | >.>.6.9.7.;.R R L t t w . .             ",
"            * 6 9 m Z =.7.9.7.:.-.=.=.+.T b N N ~ Q N V U T ( Y R [ | 6.=.Y L m 9 7 X .             ",
"          $ $ : 5 x V U Y Y U V V F ~ @.E M l V Q D B U Y @.@.W V x J L L U c x 0 > $ . .           ",
"          7 4 j k k j 5 j x 5 j n C W W T r M V Q G A J T ^ U A n j j 5 5 0 j k 5 3 @ . .           ",
"                -           T v k k N U F n b V ^ G V M Z W N c 2 1 $ +         j 2 m f .           ",
"                                  k j x b n V N Q D N V M c j k k . .                               ",
"                                      v V A O.B G F S @.A V B B N 4 .                               ",
"                                      n G *.G S D D S &.*.F M b n y i                               ",
"                                    4 e ( o.H B o.F S $.o.M d d /                                   ",
"                                    5 Y &.o.C B o.D S G A A t & &                                   ",
"                                    5 M O.2.N c V B n ( 1.L 6 . .                                   ",
"                                    5 M @.@.b < j 0 9 m / e # .                                     ",
"                                      M b.n.% + 3 , # q y , .                                       ",
"                                      A o.7.f 9 5 y 6 4.n ; .                                       ",
"                                      A #.Y n c l B b ( H z 3 .                                     ",
"                                      b #.b 5 l B l 0 4 B B j $                                     ",
"                                        n 5 7 C H D e u w T (                                       ",
"                                        4 4 t r b x w o                                             ",
"                                              9 n , o                                               ",
"                                              m U < .                                               ",
"                                                Z I                                                 ",
"                                                                                                    ",
"                                                                                                    ",
"                                                                                                    ",
"                                                                                                    "
};
