/* XPM */
static char *_4d3c314abe540fd995dd7fbe82841caS6LqKSWMYZoILvCJ[] = {
/* columns rows colors chars-per-pixel */
"50 50 218 2 ",
"   c None",
".  c #000000",
"X  c #0C0806",
"o  c #0D0806",
"O  c #140907",
"+  c #140E09",
"@  c #170707",
"#  c #1B120C",
"$  c #240F0B",
"%  c #2A0B0A",
"&  c #2A0706",
"*  c #340B0B",
"=  c #3C0A0A",
"-  c #3B0708",
";  c #26110E",
":  c #2B140D",
">  c #34120E",
",  c #3B130E",
"<  c #31180E",
"1  c #231A12",
"2  c #2B1C13",
"3  c #2A1610",
"4  c #351711",
"5  c #3B1C14",
"6  c #3A1914",
"7  c #2A2118",
"8  c #342216",
"9  c #342518",
"0  c #362A1B",
"q  c #3B2A1B",
"w  c #3B2519",
"e  c #342B21",
"r  c #430C0C",
"t  c #4B0D0C",
"y  c #400907",
"u  c #520D0B",
"i  c #5A0F0D",
"p  c #43110E",
"a  c #4B100D",
"s  c #52110E",
"d  c #5B120E",
"f  c #5A0F10",
"g  c #560D10",
"h  c #431411",
"j  c #4B1512",
"k  c #441A14",
"l  c #4D1A14",
"z  c #541413",
"x  c #5C1412",
"c  c #541A15",
"v  c #5A1B16",
"b  c #541B18",
"n  c #5C1D19",
"m  c #61120F",
"M  c #641514",
"N  c #621B17",
"B  c #6B1916",
"V  c #631D19",
"C  c #6D1E1B",
"Z  c #6A1715",
"A  c #731E1B",
"S  c #791D18",
"D  c #42271A",
"F  c #4B211A",
"G  c #442C1E",
"H  c #48281A",
"J  c #54231C",
"K  c #5A231B",
"L  c #54281E",
"P  c #5E2A1C",
"I  c #512617",
"U  c #56301D",
"Y  c #63221C",
"T  c #6B221D",
"R  c #6A2319",
"E  c #75231E",
"W  c #7A241E",
"Q  c #78291C",
"!  c #592D21",
"~  c #502E20",
"^  c #453424",
"/  c #463829",
"(  c #5F3225",
")  c #553A28",
"_  c #6D2521",
"`  c #622C21",
"'  c #6B2C23",
"]  c #7B2621",
"[  c #742B22",
"{  c #7C2B23",
"}  c #752724",
"|  c #613525",
" . c #6D3127",
".. c #6C3329",
"X. c #6B3C2A",
"o. c #663828",
"O. c #743327",
"+. c #7A342C",
"@. c #753929",
"#. c #773D32",
"$. c #5D442D",
"%. c #544534",
"&. c #61442C",
"*. c #75442E",
"=. c #654C36",
"-. c #754530",
";. c #7D4B32",
":. c #774832",
">. c #75553A",
",. c #675037",
"<. c #7E603E",
"1. c #7C5F45",
"2. c #7D6248",
"3. c #81221F",
"4. c #842421",
"5. c #832C24",
"6. c #8B2B25",
"7. c #842D28",
"8. c #8D2B28",
"9. c #942A27",
"0. c #972C27",
"q. c #85342B",
"w. c #8D342A",
"e. c #83392C",
"r. c #8D392B",
"t. c #8D3726",
"y. c #9C312C",
"u. c #95382D",
"i. c #863C31",
"p. c #8A3E33",
"a. c #8D3730",
"s. c #923C31",
"d. c #9B3B31",
"f. c #A12F2B",
"g. c #A3332D",
"h. c #AD3530",
"j. c #A33C35",
"k. c #AA3E39",
"l. c #B43B35",
"z. c #91462F",
"x. c #844331",
"c. c #8D4331",
"v. c #894939",
"b. c #944634",
"n. c #944C35",
"m. c #9D4B35",
"M. c #9B453A",
"N. c #9C4B3C",
"B. c #9C4334",
"V. c #8A553A",
"C. c #845D3E",
"Z. c #965337",
"A. c #94543C",
"S. c #9B543A",
"D. c #9B5F3F",
"F. c #9A5137",
"G. c #A54E37",
"H. c #A34A3D",
"J. c #A54437",
"K. c #B0453B",
"L. c #BF463D",
"P. c #A2593E",
"I. c #A9513D",
"U. c #B2583F",
"Y. c #89633F",
"T. c #C1443D",
"R. c #864F41",
"E. c #B64B41",
"W. c #A85B48",
"Q. c #B85542",
"!. c #866548",
"~. c #996645",
"^. c #956B52",
"/. c #9F7153",
"(. c #977359",
"). c #A46443",
"_. c #AB6244",
"`. c #A36D4A",
"'. c #A96C4B",
"]. c #A46945",
"[. c #BE6F4D",
"{. c #B36648",
"}. c #AB734D",
"|. c #A4764C",
" X c #B4724E",
".X c #A36250",
"XX c #A26F55",
"oX c #A67F5A",
"OX c #AA7E56",
"+X c #BC7B53",
"@X c #B57F58",
"#X c #B17A55",
"$X c #A77D61",
"%X c #C84841",
"&X c #C67853",
"*X c #AB835D",
"=X c #B58154",
"-X c #BC8156",
";X c #BD845A",
":X c #BE8C5A",
">X c #B0855F",
",X c #A68363",
"<X c #A5876B",
"1X c #B0896C",
"2X c #BA946D",
"3X c #C38B5C",
"4X c #C78459",
"5X c #C39465",
"6X c #C3946A",
"7X c #C79A6D",
"8X c #CC9B6E",
"9X c #CA9465",
"0X c #D69765",
"qX c #D29D6C",
"wX c #C69D71",
"eX c #D29F71",
"rX c #DCA571",
"tX c #C4AC80",
/* pixels */
"                                                                                                    ",
"                                                                                                    ",
"                                                                                                    ",
"                                                                            g                       ",
"                                                                              M 8.                  ",
"                                                                                g u.                ",
"                                                      8                           z s.              ",
"                                                      & &                           n v.            ",
"                                                      = = = =                       - O.*.          ",
"                                                    & = * * , ,                       c ;.7         ",
"                                                    * : < 8 5 4 6 >                   = X.$.        ",
"                                                t - > 5 q q G D 3 3 2 2 9               K >.#       ",
"                                              - d a , F ~ ) / / q q 1 2 8 9 9 H         r :.0 .     ",
"                                              u d n , F | ( &.$.%.%./ 2 1 8 8 F P R     * | / .     ",
"                                            s z v Y p L o.X.>.,./ e 7 3 2 . o # U       = L / . .   ",
"              >XtX                        y s c v P K L o.-.) X . . . . . . . . o +     y J ^ . .   ",
"          * v !                       > j t c l _ O.P l o.9 . . . . . . . . .       . * r J e   .   ",
"        r y t a = =                 h F j h , >   $ : h < . . . . .                   z g ~   . .   ",
"    C v z g V { S Z r %             r b v n v b 4 % % = > $ O .                     V x v D   . .   ",
"    } { M Z V } M.a.Z x z         r j z c n c x b j j j c c n j                   E A V ! 2 . . .   ",
"    Y [ K Y [ |.<X^.8.B A M V   K z V C C S n } V E } Q 3.Q W C A K P W n R E 5.6.4.E T 5 . . .     ",
"    R T Y ` X.1.1.v.b.7.{ 4.] _ 6.4.0.4.A 4.A ] A S 3.4.9.f.g.h.8.7.E 0.6.g.l.K.h.8.{ J + . . .     ",
"          ....1 e =.;.p.M.8.y.y.h.9.E K V n n V  .C E C } } { 4.j.R.d.y.0.l.%XT.d.r.| # . . .       ",
"          / ,.1 . 1 ) -.v.w.K.L.9.M b ' _ } 5.} R.E.E.h.K.Q.H.} (.XX.Xd.y.h.K.j.q.| # . . .         ",
"              %..   1 ) o.[ q.H.} b n T v N } T n  .e.R @.n.v.^.<X$X.X7.{ r.c. .H + . . .           ",
"                        5 ~ ..+._ J n _ C u n Y v Y | l @.:.!.,X(.1XR.Y ! ! D q + . .               ",
"                          4 6 k ! #._ 7.Q i a v v ` K Y *.;.~.,XV.2X!.: + 1 ! I . .                 ",
"                          = y y j #.} k.b.T s t j n c [ x.V.*X|.A.wX2X,.,.XXJ.h                     ",
"                          l f z % #.+.W.B.J h t = p z { V.~.*X~.'.6X8X9X7X XW.                      ",
"                                . F ..+.+., ; % u - v +.~.~.OXF.#X9XqX7X#X}.^..                     ",
"                                  b ( _ J # . X O.Z N c.~.].`.n.-X9XeX@XF.5X2..                     ",
"                                  ......+.O .     3.Z b.D.].V.n.-X8X8XZ.}.wX,..                     ",
"                                  ..p.q.~ .       8.C n.].}.;.W.;XqX XP.7X5X<..                     ",
"                                  n i.+.@ .         A b._.).+.'.4X-Xm.;X7X:X=X^                     ",
"                                  ! p.#.o           Z 7.I.n.c. X+XF._.:X9XqX0X=XC.                  ",
"                                  ' v....             ] H.r.S.{.Z.z.{.-XqXrX9X XU.6.                ",
"                                l ' +.3               E u.5.D.S.Q _.&X4X0X9X_.G.z.:                 ",
"                                l _ l .               B A W G.r.B.&X&X4X4XF.z.`.)                   ",
"                                v v @                 M M W 5.w.{.&X[.{.G.F.=X2.                    ",
"                              = x *                   m i Z W G.{.P.t.t.).3XoX1                     ",
"                          _ t f M O                   Z m M r.B.d.3.z.'.:X3X>.                      ",
"                          T f t &                       S x E S 3.B._.+X:X|.                        ",
"                          o.r                           S u M 4.B.J.U.+X-XY.                        ",
"                                                        t.m E 4.t.B.M._.;X>.                        ",
"                                                        }.d x Z B Q e.F.S.|                         ",
"                                                                      Q R Y                         ",
"                                                                                                    ",
"                                                                                                    ",
"                                                                                                    ",
"                                                                                                    "
};
