/* XPM */
static char *a78d40d4c6ad43f2d3690f1f6db5977dfo24LkC8G6ChnmOZ[] = {
/* columns rows colors chars-per-pixel */
"50 50 211 2 ",
"   c None",
".  c #010000",
"X  c #0B0403",
"o  c #0D0906",
"O  c #120A07",
"+  c #1A0907",
"@  c #1A140D",
"#  c #1A1A14",
"$  c #240606",
"%  c #290807",
"&  c #230B09",
"*  c #2C0C0A",
"=  c #2A0706",
"-  c #390608",
";  c #340B0A",
":  c #3B0C0A",
">  c #380907",
",  c #25150E",
"<  c #2C130D",
"1  c #32120C",
"2  c #38140E",
"3  c #2C1611",
"4  c #2C1C12",
"5  c #231A11",
"6  c #341510",
"7  c #3A1511",
"8  c #341C13",
"9  c #2D2318",
"0  c #352216",
"q  c #332519",
"w  c #3A2319",
"e  c #3C2B1C",
"r  c #39271B",
"t  c #372E24",
"y  c #4A0C0C",
"u  c #460909",
"i  c #540D0C",
"p  c #590E0E",
"a  c #4C110E",
"s  c #42110E",
"d  c #59110F",
"f  c #51100D",
"g  c #4C0F10",
"h  c #530F11",
"j  c #5B0E10",
"k  c #441411",
"l  c #4C1412",
"z  c #461A16",
"x  c #4B1A15",
"c  c #4A1E18",
"v  c #541312",
"b  c #5C1514",
"n  c #541A15",
"m  c #5B1B16",
"M  c #531E1A",
"N  c #5C1D19",
"B  c #62110E",
"V  c #620F12",
"C  c #651514",
"Z  c #651A15",
"A  c #6A1A16",
"S  c #641E1A",
"D  c #6B1C1A",
"F  c #6C1617",
"G  c #751C1B",
"H  c #7C1E1D",
"J  c #711918",
"K  c #412A1E",
"L  c #482519",
"P  c #5A2017",
"I  c #55221A",
"U  c #5C221B",
"Y  c #54281C",
"T  c #64231D",
"R  c #69211D",
"E  c #64281E",
"W  c #6B281A",
"Q  c #73231E",
"!  c #7A211E",
"~  c #66311E",
"^  c #5D2921",
"/  c #4C3422",
"(  c #443426",
")  c #5D3324",
"_  c #583826",
"`  c #622721",
"'  c #6B2521",
"]  c #642C22",
"[  c #6B2B22",
"{  c #752521",
"}  c #7B2421",
"|  c #752C24",
" . c #7D2B22",
".. c #7C2E2A",
"X. c #712F28",
"o. c #643323",
"O. c #6C342A",
"+. c #6C3B2B",
"@. c #753527",
"#. c #7C3126",
"$. c #753429",
"%. c #7C352B",
"&. c #733E2C",
"*. c #7B3C2B",
"=. c #7F3826",
"-. c #5A4A37",
";. c #63422D",
":. c #74402E",
">. c #734C34",
",. c #754935",
"<. c #6B563B",
"1. c #7B503A",
"2. c #6B4B34",
"3. c #811E1E",
"4. c #85291F",
"5. c #832B24",
"6. c #8A2B25",
"7. c #852C29",
"8. c #8B2523",
"9. c #922927",
"0. c #942B29",
"q. c #9A2B28",
"w. c #86342B",
"e. c #8D342C",
"r. c #8C3C2C",
"t. c #853529",
"y. c #9C322B",
"u. c #923C2D",
"i. c #903425",
"p. c #883E31",
"a. c #9F3A31",
"s. c #983531",
"d. c #A22E2C",
"f. c #A5332E",
"g. c #A9322E",
"h. c #A83934",
"j. c #B13933",
"k. c #B83E39",
"l. c #C13F3B",
"z. c #8C432D",
"x. c #94442F",
"c. c #884633",
"v. c #9A4433",
"b. c #934B33",
"n. c #984937",
"m. c #865539",
"M. c #8F533B",
"N. c #94513A",
"B. c #9C5A3C",
"V. c #985035",
"C. c #A14437",
"Z. c #A24B35",
"A. c #A54D38",
"S. c #AE4A3B",
"D. c #B94239",
"F. c #A0513B",
"G. c #A15A3C",
"H. c #C2413B",
"J. c #C8443E",
"K. c #9E4D41",
"L. c #875D48",
"P. c #9E5D41",
"I. c #B84C42",
"U. c #A55E44",
"Y. c #AF5745",
"T. c #896340",
"R. c #9E6444",
"E. c #966848",
"W. c #9F734E",
"Q. c #977554",
"!. c #A36142",
"~. c #AB6344",
"^. c #A46D4A",
"/. c #AE6D4C",
"(. c #A96A46",
"). c #B46C49",
"_. c #B36045",
"`. c #A4744E",
"'. c #AC734C",
"]. c #AB7B4D",
"[. c #B3734E",
"{. c #B8764D",
"}. c #A77857",
"|. c #B37C55",
" X c #B77855",
".X c #9A7F69",
"XX c #C17D52",
"oX c #AD8253",
"OX c #AA835B",
"+X c #AF8858",
"@X c #B28559",
"#X c #BB8B5F",
"$X c #BA8455",
"%X c #AB8867",
"&X c #B78962",
"*X c #BF996D",
"=X c #AF9170",
"-X c #BB9670",
";X c #C28B5C",
":X c #CA8959",
">X c #CC915D",
",X c #C4905F",
"<X c #C38D62",
"1X c #C28761",
"2X c #C49365",
"3X c #C3966C",
"4X c #C89868",
"5X c #C69872",
"6X c #C2AB7D",
"7X c #D5A87E",
"8X c #B49E81",
/* pixels */
"                                                                                                    ",
"                                                                                                    ",
"                                                                                                    ",
"            v y u u                                                                                 ",
"        I h u -                                                                                     ",
"        N u                                                                                         ",
"      o.C y                                                                                         ",
"      T p                                                                                           ",
"    ) b i                                                                                           ",
"    ^ j j                                                                                           ",
"    U V             .                                                                               ",
"    S J         . .                                                                                 ",
"    ' G       . .                     % =                                                           ",
"    D H       .                 ; : = * * =                                                         ",
"    R 3.    . .             < 1 1 < 8 4 3 < ; d u                                                   ",
"    ' 8.!   .         9 4 , 4 4 5 w e w w 1 a C p u                                                 ",
"    ` 9.! < + 6 L e q q 8 9 t r K ( / / L 2 T U b b y                             6X                ",
"    I 6.0.P 1     8 8       t ( -.-.2.o.Y n E P n m v u s                         %X1.7             ",
"      { d.5.&               w         _ I P ) I 7 z l l x z                       - u y ; s         ",
"      S d.k.T                       + 8 k z 2 * 3 x n n N U l                 h j G R v i a b       ",
"        7.l.k.{               1 * N I n s n k x I m m N n v v x           v F D e.6.S C Z S 7.Q     ",
"        ^ h.J.D.a.{ N n ' n R S ! 5.6.6.Q e.Q  .R } S 5.Q Q S m T I T D D F H c.Q.}.K.N ` N | N     ",
"          $.S.J.D.j.y.9.f.s.d.d.g.f.q.8.! ! H ! R ! D ! D G q.9.y.} 5.8.} 7.w.c.1.<.1.O.` Y U T     ",
"            | f.I.D.g.u.d.j.g.0.H } t.e.5.5.G { $.T U S T N b H d.f.y.0.e.w.*.;.t   e +._ o . r     ",
"            0 o.r.v.h.e.e.K.0.} G w.S.D.6.f.j.y.7.Q  .D S [ n g F f.v.5.%.+./ 5 . X -.t # . . X     ",
"              @ L o.$.$.K.=XL.' T N w.#.~ U $.M x S W v Z S N n T  .$.` ^ 8 o . . X # . . . . .     ",
"                  O , 0 }. X8X.XL.2.&.o.&.n ) I n T n i G 7.' ` U x x 7 O . . . . . .       .       ",
"                    . . .X X=X=XE.T.>.+.&.E P E b b y d s.I.%.O.c : i : , . . . .                   ",
"                        .X5XN.%X%XQ.m.>.&.| n n g y g g s.Y.p.O.* g C 7 @ . .                       ",
"                        -X7XU.U.&XOXE.m.*.| b : - : + z ` p.X.z . X $ 1 @ .                         ",
"                        2X4X1XV.}.@X^.M.c.| Z i N * . @ ' ' ^ z . . . . . .                         ",
"              i.A.&X5X#X2X:X<X~.N.].'.R.M.p.Z A ^ X . X ..w.' ] o .                                 ",
"                _.(.@X2X2X$X$X{.z.E.|.'.P.7.A Z + . .     [ ..M X .                                 ",
"                3X<XB.B.&X;X$X{.P.*.^.[.U.7.Z ; . .       ' 7.k . .                                 ",
"                  5X2XB.V.~.).[./.r.z.!.n.{ h . .         S | ' & .                                 ",
"                  +X*X3X).x.b.U.'.U.5.z.e.R ; . .           D ' 7 .                                 ",
"                  $X+X*X&X).r.t.B.!.t.A ! d + .             g b k .                                 ",
"                $X>X>X>X;X X~.r.5.b.r.B b i X .               l l + .                               ",
"              `.oX&X2X>X:XXX{.[.Z.5.W C d a X .                 j g ; k                             ",
"            y.A.G.G.(.[.{.).{.{._.C.! d B I #                   F F V l O                           ",
"              z.B.b.z.v.A.x.x.b.v.i. .d B ; .                     h C m 8                           ",
"                OX@X].`.!.V.z. .4.J b i W L .                         ] /                           ",
"                    &X+XoX'.G.V.e.{ A v W <.                                                        ",
"                      oX].|.G.e.#.D a =                                                             ",
"                        ].^.b.@.U a                                                                 ",
"                        W.E.*.M *                                                                   ",
"                        @.[ x                                                                       ",
"                                                                                                    ",
"                                                                                                    ",
"                                                                                                    "
};
