/* XPM */
static char *a5e524e4e8fe4b1bcb21df7bdc54735cNCM7baBbnYusWsK6[] = {
/* columns rows colors chars-per-pixel */
"50 50 186 2 ",
"   c None",
".  c #000000",
"X  c #0B0403",
"o  c #0C0906",
"O  c #110404",
"+  c #1B0404",
"@  c #130906",
"#  c #1E0907",
"$  c #130F0A",
"%  c #1B120C",
"&  c #260505",
"*  c #2C0B0A",
"=  c #2C0606",
"-  c #380806",
";  c #330E0C",
":  c #3B0C0B",
">  c #27100C",
",  c #2E100D",
"<  c #35110E",
"1  c #3B110E",
"2  c #34180F",
"3  c #211B14",
"4  c #341411",
"5  c #3C1412",
"6  c #3D1B15",
"7  c #351A12",
"8  c #2E261B",
"9  c #3F2215",
"0  c #362219",
"q  c #3F2C1E",
"w  c #392F21",
"e  c #440508",
"r  c #440C0B",
"t  c #4C0B0B",
"y  c #430A07",
"u  c #520D0D",
"i  c #590D0F",
"p  c #44110E",
"a  c #4A110F",
"s  c #54110E",
"d  c #5B110E",
"f  c #560E10",
"g  c #5A0F11",
"h  c #431311",
"j  c #4C1412",
"k  c #441B14",
"l  c #4B1B15",
"z  c #461F19",
"x  c #4D1C19",
"c  c #541512",
"v  c #5B1513",
"b  c #541A15",
"n  c #5B1A16",
"m  c #521E19",
"M  c #5C1D19",
"N  c #60120F",
"B  c #631615",
"V  c #6B1515",
"C  c #621B16",
"Z  c #6A1A16",
"A  c #631D1A",
"S  c #6C1C19",
"D  c #701915",
"F  c #721616",
"G  c #472013",
"H  c #44251A",
"J  c #4D231B",
"K  c #422C1E",
"L  c #4C2B1D",
"P  c #562017",
"I  c #592017",
"U  c #54251B",
"Y  c #5C231B",
"T  c #5C2A1E",
"R  c #4F321F",
"E  c #64231B",
"W  c #6A271E",
"Q  c #6B231C",
"!  c #612C1E",
"~  c #6C2E1E",
"^  c #72221D",
"/  c #4D2C20",
"(  c #472D25",
")  c #572F21",
"_  c #5D2B22",
"`  c #423424",
"'  c #4D3422",
"]  c #4D3B26",
"[  c #403828",
"{  c #4E3C29",
"}  c #553523",
"|  c #5C3424",
" . c #543C26",
".. c #5A3927",
"X. c #5C3926",
"o. c #583628",
"O. c #533E29",
"+. c #5D3E2E",
"@. c #4F3E31",
"#. c #672722",
"$. c #6E2621",
"%. c #652821",
"&. c #612E21",
"*. c #632D23",
"=. c #6C2D21",
"-. c #722720",
";. c #782421",
":. c #742B23",
">. c #643222",
",. c #6A3323",
"<. c #653A26",
"1. c #683C26",
"2. c #6C3529",
"3. c #623C29",
"4. c #6A3B29",
"5. c #743124",
"6. c #7F3327",
"7. c #7B302A",
"8. c #763C2B",
"9. c #7A3A2A",
"0. c #56432B",
"q. c #5C432B",
"w. c #5B4432",
"e. c #5D4C32",
"r. c #584838",
"t. c #6C442C",
"y. c #68492E",
"u. c #72452D",
"i. c #73492E",
"p. c #7B482D",
"a. c #634C34",
"s. c #6E4A33",
"d. c #6E4F3B",
"f. c #744E31",
"g. c #784F35",
"h. c #7D4B38",
"j. c #6B5032",
"k. c #755536",
"l. c #785034",
"z. c #765A37",
"x. c #7B5B37",
"c. c #72533A",
"v. c #765D3E",
"b. c #7A5C3B",
"n. c #7C573B",
"m. c #7D613D",
"M. c #6E5C43",
"N. c #725A40",
"B. c #795F42",
"V. c #776643",
"C. c #7B6242",
"Z. c #7F6946",
"A. c #7F6E57",
"S. c #831F1F",
"D. c #833C2C",
"F. c #92362F",
"G. c #8B3D33",
"H. c #9C3630",
"J. c #9F3A33",
"K. c #923E36",
"L. c #854D35",
"P. c #934335",
"I. c #934739",
"U. c #875035",
"Y. c #95523C",
"T. c #A64438",
"R. c #83623D",
"E. c #88653F",
"W. c #895C40",
"Q. c #9B5B44",
"!. c #A75E47",
"~. c #B35845",
"^. c #B25648",
"/. c #846344",
"(. c #846C4B",
"). c #8B6441",
"_. c #926344",
"`. c #9A6A4D",
"'. c #906A4B",
"]. c #897457",
"[. c #807454",
"{. c #9E7352",
"}. c #AD7152",
"|. c #B17353",
" X c #C6614E",
".X c #CB815F",
/* pixels */
"                                                                                                    ",
"                                                                                                    ",
"                                                                                                    ",
"                                                                                                    ",
"                                              ; ;                                                   ",
"                                            : : :                                                   ",
"                                          k r t r p                                                 ",
"                                          Y v t s b                                                 ",
"                                        V.3.b f u U j.                                              ",
"                                          a.Y f c o.[.    . .                                       ",
"                                          (.M V v s.    . . .                                       ",
"                                            S S.S +.    . . . .                                     ",
"                                            B B B     . . . . .                                     ",
"                                            C S B     . . . .                                       ",
"                                            A B M     . . . .                                       ",
"                                          k n v c       . .                                         ",
"                                          1 n A b     % % @                                         ",
"                                          5 c n j L   ; ; @                                         ",
"                                          4 h b : k h t r #                                         ",
"                                          * : n * & V F i +                                         ",
"                                      4 4 * h v ; * 5 h : .                                         ",
"                                    h x m h n ^ a j m l : X     .                                   ",
"                                  r v n n c n A c m c v i - X . .                                   ",
"                                u c A M M B C -.B C M E n d y O                                     ",
"                              s v M M x E A c E c A x x A A B t &                                   ",
"                          y t s c M A h _ *.c n m #.j ; 5 n n c u : *                               ",
"            e           y r a b U Y _ 6 x m c E c c ; * l Y Y M c u t r                             ",
"            i         r u v v b b l l 4 l c c E j j ; > T T I n C M n B S v                         ",
"            i t     p Z M Y T *.>.*.Y l _ M c n c c k l E W ~ T J H H L T W ^ Z                     ",
"            g u     Q T } +.y.3.X.X.9.5 Y A n A c W M x } X./ K ` ' }  .o.) P n v u t               ",
"              g r n L } } q.w.w.r.+.| x *.^ c b n 9.M ) d.d.t.4.| | *.,.,.T P c s s d d b y.        ",
"              S i p H R L L } o.+.w./ U 4.Q c A v -.m k @.A.].(./.n.l.g.g.f.t.&.b d N V D G         ",
"            t a S i p U } } q.a.r.( m M M B j A f B x ; < 0 M.(.R.x.n.f.i.1.! P I ~ C d S + . .     ",
"          y a p T 5.C h L 0.e.[ % 4 x #.m M j Q h j > x 7.6 6 m.m.C.z.<.T ! ~ 4.2.E d C v X .       ",
"        y t p 1 6 <.L.:.j h H @ O 4 _ #.m j h S h * ; K.^.*.k V.C.g.1.T 1.t.i.f.u.n n ^ s . .       ",
"        s r l G G P } Y.Y.;.g r & 6 J %.U 5 5 n j @ z G.I._ +.c.t.u.x.C.m.z.j.i.~ E ~ ^ j . .       ",
"        c r 1 R } } R  ./.}.~.H.S j p h 4 , < j x O O z 2._ U t.C.(.Z.C.m.m.f.,.~ 8.^ 6.c . .       ",
"        j j 1 U R 0.q.e.a.N.{..X XJ.;.v p : : < * # . o 3.5.5 8 [ a.b.x.m.z.t.T i.p.9.D.p .         ",
"        a m k k R 0.e.a.w.w 3 O.`.|.!.K.:.A a h 4 * O . , $.4 .       R.v.t.T s.m.R.U.L.< .         ",
"          Y U H 9 0.0.] $ .     _ Q.`.'.W.h.2._ x 7 O .               B.3.! i.m.R.)._.9.# .         ",
"          ! } } H L ] % .       A T.K./ { a.a.w.K % . .               3.L y.m.C.m.E._.E X           ",
"          >.q.0.0.G q o .       A F.E O .                             l J 0.8 3       E             ",
"          | a.0.w K 2 o .       $.-.* .                                                             ",
"          I                   + x M O .                                                             ",
"                            = + & * O                                                               ",
"                                                                                                    ",
"                                                                                                    ",
"                                                                                                    ",
"                                                                                                    ",
"                                                                                                    "
};
