/* XPM */
static char *eee9daf469034685e1c4b1b8066c9dc3zUnRjx4SUPaxfuPA[] = {
/* columns rows colors chars-per-pixel */
"50 50 99 2 ",
"   c None",
".  c #3C3A2B",
"X  c #41280F",
"o  c #42280F",
"O  c #402910",
"+  c #462C11",
"@  c #412D14",
"#  c #492D10",
"$  c #4B2E10",
"%  c #44341A",
"&  c #4A3519",
"*  c #513111",
"=  c #523110",
"-  c #533211",
";  c #553614",
":  c #5B3612",
">  c #5E3812",
",  c #5F3B15",
"<  c #5C3B16",
"1  c #583C19",
"2  c #5E3D19",
"3  c #5D3E1A",
"4  c #633B12",
"5  c #623A13",
"6  c #633B13",
"7  c #643B13",
"8  c #463E23",
"9  c #413E25",
"0  c #433E24",
"q  c #423E25",
"w  c #483F23",
"e  c #4D3F22",
"r  c #4B4428",
"t  c #48452B",
"y  c #4D462A",
"u  c #48462D",
"i  c #594524",
"p  c #5D4428",
"a  c #5B462E",
"s  c #584937",
"d  c #575337",
"f  c #5A563B",
"g  c #5D5A3C",
"h  c #605A3A",
"j  c #4E4D43",
"k  c #55534A",
"l  c #59584E",
"z  c #5B5A50",
"x  c #595852",
"c  c #595953",
"v  c #5A5953",
"b  c #5C5B53",
"n  c #5B5A54",
"m  c #5B5A55",
"M  c #5F5E56",
"N  c #605A50",
"B  c #656142",
"V  c #65624B",
"C  c #62625D",
"Z  c #656460",
"A  c #656561",
"S  c #666561",
"D  c #656562",
"F  c #656663",
"G  c #666663",
"H  c #676663",
"J  c #676763",
"K  c #676764",
"L  c #696964",
"P  c #686865",
"I  c #696865",
"U  c #696966",
"Y  c #6A6A67",
"T  c #6A6A68",
"R  c #6A6B68",
"E  c #6B6B68",
"W  c #6B6B69",
"Q  c #6C6C69",
"!  c #6D6D6A",
"~  c #6E6E6C",
"^  c #717064",
"/  c #74736A",
"(  c #767568",
")  c #70706D",
"_  c #74736F",
"`  c #74746D",
"'  c #747471",
"]  c #777774",
"[  c #777775",
"{  c #797976",
"}  c #7C7C79",
"|  c #7C7C7A",
" . c #81817E",
".. c #8A8A88",
"X. c #8C8C89",
"o. c #8D8D8E",
"O. c #8E8E8E",
"+. c #A5A5A4",
"@. c gray69",
/* pixels */
"                                                                                                    ",
"                                                                                                    ",
"                                                                                                    ",
"                                                                                                    ",
"                                                                                                    ",
"                                                                                                    ",
"                                                                                                    ",
"                                                                                                    ",
"                                                                                                    ",
"                                                                                                    ",
"                                      @.        O.O.                                                ",
"                                      @.      O.O.O.O.                                              ",
"                                              _ / ` _                                               ",
"                                        @.    V f . j                                               ",
"                                              ^ ( M z                                               ",
"                                          ) Y ' [ [ { X.+.                                          ",
"                                        Y Y Y Y Y K Y Q } ..                                        ",
"                                      Y Y Y Y Y Y Y Y Y Y T Q                                       ",
"                                      Y Y Y Y Y Y Y Y Y Y Y ~                                       ",
"                                    Y Y Y Y Y Y Y Y Y Y Y Y Y Y                                     ",
"                                    Y Y Y Y Y Y }  .T Y Y Y Y Y                                     ",
"                                    Y Y Y Y Y Y Q ' Y Y Y Y Y Y                                     ",
"                                    Y Y Y Y Y J z v v Y Y Y Y Y                                     ",
"                                    Y Y Y Y Y Y J C Y Y Y Y Y Y                                     ",
"                                      H Y Y Y Y Y T T Y Y Y Y                                       ",
"                                      v H E Y Y Y Y T T Y J v                                       ",
"                                        Z H E E Y T Y T K z                                         ",
"                                          k l J D D Z z l                                           ",
"                                          8 3 p a s   u B                                           ",
"                                          w 6 6 6     9 d                                           ",
"                                          h 3 6 6       r g                                         ",
"                                          y 9           < 1                                         ",
"                                          ; %           6 7                                         ",
"                                        7 *             6 6                                         ",
"                                        : #             6 6                                         ",
"                                      6 $                 >                                         ",
"                                      - O                 -                                         ",
"                                    i &                   + o o                                     ",
"                                    0 u B                 @ O e                                     ",
"                                                                                                    ",
"                                                                                                    ",
"                                                                                                    ",
"                                                                                                    ",
"                                                                                                    ",
"                                                                                                    ",
"                                                                                                    ",
"                                                                                                    ",
"                                                                                                    ",
"                                                                                                    ",
"                                                                                                    "
};
