/* XPM */
static char *result[] = {
/* columns rows colors chars-per-pixel */
"48 48 82 1 ",
"  c black",
". c #010001",
"X c #010101",
"o c #020101",
"O c #030102",
"+ c #020202",
"@ c #030202",
"# c #040203",
"$ c #050203",
"% c #040304",
"& c #060304",
"* c #040404",
"= c #050405",
"- c #070506",
"; c #070606",
": c #080406",
"> c #0A0507",
", c #080607",
"< c #080707",
"1 c #090708",
"2 c #0B0608",
"3 c #0C0608",
"4 c #0C0609",
"5 c #0A0809",
"6 c #0B0909",
"7 c #0B090A",
"8 c #0C090A",
"9 c #0F0C0D",
"0 c #10080B",
"q c #130A0D",
"w c #140A0E",
"e c #100D0E",
"r c #110D0E",
"t c #160B10",
"y c #120F10",
"u c #130F10",
"i c #170C10",
"p c #1C0E13",
"a c #1C0F14",
"s c #1D0F14",
"d c #141011",
"f c #151113",
"g c #161113",
"h c #181214",
"j c #181315",
"k c #191416",
"l c #1C1619",
"z c #1E181A",
"x c #201017",
"c c #211117",
"v c #221218",
"b c #241219",
"n c #25131A",
"m c #221B1E",
"M c #231B1E",
"N c #241C1F",
"B c #241D20",
"V c #251D20",
"C c #261E21",
"Z c #271F23",
"A c #281E22",
"S c #2A2024",
"D c #2B2025",
"F c #2B2225",
"G c #2C2327",
"H c #33292D",
"J c #34292D",
"K c #36282E",
"L c #372C30",
"P c #3C2F35",
"I c #403339",
"U c #4C3941",
"Y c #503F46",
"T c #514047",
"R c #BE9F4E",
"E c #C09344",
"W c #D4B157",
"Q c #E3BE5D",
"! c #F3CB64",
"~ c #F6CD65",
"^ c #FFD569",
"/ c #FFF1CC",
/* pixels */
"                                                ",
"                                                ",
"                                                ",
"                                                ",
"                                                ",
"                                                ",
"                                                ",
"                                                ",
"                                                ",
"                                                ",
"                                                ",
"                                                ",
"                                                ",
"                                                ",
"                                                ",
"                                                ",
"                                                ",
"                                                ",
"                                                ",
"                    =:n:-                       ",
"                  +5HnnnIu6                     ",
"                 *pnnEEEnnnh                    ",
"                 MnnnEEEnnnS                    ",
"               ,jYnnnEEEnnnUDAf1;%              ",
"              8nnnEEEnnnEEEnnnnnnnnvw&          ",
"              FnnnEEEnnnEEEnnnnnnnnnnna         ",
"              FnnnEEEnnnEEEnnnnnnnnnnnn7        ",
"              FnnnEEEnnnEEEEEEEEEEEEnnne        ",
"              NnnnEEEnnnEEEEEEEEEEEEnnnd        ",
"              jnnnEEEnnnEEEEEEEEEEEEnnnj        ",
"              rnnnEEEnnn^^^nnn//////nnnz        ",
"              gnnnEEEnnn^^^nnn//////nnnm        ",
"              lnnnEEEnnn^^^nnn//////nnnV        ",
"              Knnn^^^nnn^^^nnnnnn///nnnZ        ",
"              Unnn^^^nnn^^^nnnnnn///nnbm        ",
"              Unnn^^^nnn^^^nnniiq///nntz        ",
"               JPTnnn^^^nnnnn3Bjk^^^nn0j        ",
"                 knnn^^^nnnnn:9 XQ^^nn4g        ",
"                 gncx~^W  ooo@;  R^! $>d        ",
"                  CGLsn           c  =9         ",
"                    <2n           n             ",
"                    ;&#          O$.            ",
"                     ye;                        ",
"                                                ",
"                                                ",
"                                                ",
"                                                ",
"                                                "
};
