/* XPM */
static char *result[] = {
/* columns rows colors chars-per-pixel */
"48 48 93 2 ",
"   c black",
".  c #010101",
"X  c #020101",
"o  c #020202",
"O  c #030202",
"+  c #030203",
"@  c gray1",
"#  c #040203",
"$  c #040303",
"%  c #050303",
"&  c #060304",
"*  c #040404",
"=  c #050405",
"-  c #060505",
";  c #060506",
":  c #070506",
">  c #070606",
",  c #080405",
"<  c #080406",
"1  c #090406",
"2  c #090507",
"3  c #0A0507",
"4  c #080607",
"5  c #090708",
"6  c #0C0608",
"7  c #0C0609",
"8  c #0E070A",
"9  c #0A0809",
"0  c #0B090A",
"q  c #0C090A",
"w  c #0F080B",
"e  c #0D0A0B",
"r  c #0D0B0C",
"t  c #0E0B0C",
"y  c #10080B",
"u  c #11090C",
"i  c #12090D",
"p  c #130A0D",
"a  c #140A0E",
"s  c #150B0E",
"d  c #150B0F",
"f  c #100D0E",
"g  c #110D0F",
"h  c #160B10",
"j  c #120E10",
"k  c #170C10",
"l  c #180C11",
"z  c #190D11",
"x  c #190D12",
"c  c #1A0D12",
"v  c #1A0E13",
"b  c #1B0E13",
"n  c #1C0E14",
"m  c #1D0F14",
"M  c #1D0F15",
"N  c #1E0F15",
"B  c #141012",
"V  c #161113",
"C  c #161213",
"Z  c #171214",
"A  c #181315",
"S  c #1F1016",
"D  c #1B1618",
"F  c #1C1618",
"G  c #1E171A",
"H  c #201016",
"J  c #201017",
"K  c #211117",
"L  c #221118",
"P  c #231218",
"I  c #241219",
"U  c #241319",
"Y  c #24131A",
"T  c #25131A",
"R  c #211A1D",
"E  c #231C1F",
"W  c #241D20",
"Q  c #251D21",
"!  c #261E21",
"~  c #261E22",
"^  c #281F23",
"/  c #2A2125",
"(  c #33282D",
")  c #352A2E",
"_  c #352A2F",
"`  c #3B2E34",
"'  c #3B2F34",
"]  c #3D3035",
"[  c #47383E",
"{  c #514047",
"}  c #C09344",
"|  c #FFD569",
" . c #FFF1CC",
/* pixels */
"                                                                                                ",
"                                                                                                ",
"                                                                                                ",
"                                                                                                ",
"                                                                                                ",
"                                                                                                ",
"                                                                                                ",
"                                                                                                ",
"                                                                                                ",
"                                                                                                ",
"                                                                                                ",
"                                                              t Z F A r                         ",
"                                                            I T T T T T D                       ",
"                                                            T T T T T T `                       ",
"                                                        V [ T T T T T T { ! 9                   ",
"                                                      c I T  . . .} } } T T Y 9                 ",
"                                                    @ P T T  . . .} } } T T T Z                 ",
"                                          . = e g Z ] T T T  . . .} } } T T T ^ e $             ",
"                      & 2 w l c v c c c b m S K P I T } } } T T T T T T } } } I l u             ",
"                  3 T T T T T T T T T T T T T T T T T } } } T T T T T T } } } T T x >           ",
"                  3 T T T T T T T T T T T T T T T T T } } } T T T T T T } } } T T N 5           ",
"                  y T T } } } } } } } } } } } } } } } } } } { { { T T T } } } T T S 0           ",
"                  a T T } } } } } } } } } } } } } } } } } } { { { T T T } } } T T H e           ",
"                  d T T } } } } } } } } } } } } } } } } } } { { { T T T } } } T T S e           ",
"                  d T T  . . . . . .| | | T T T T T T  . . .{ { { T T T } } } T T N q           ",
"                  p T T  . . . . . .| | | T T T T T T  . . .{ { { T T T } } } T T m 9           ",
"                  y T T  . . . . . .| | | T T T T T T  . . .{ { { T T T } } } T T c >           ",
"                  8 T T  . . .T T T | | | { ' { T T T | | | { { { T T T | | | T T h 4           ",
"                  6 T T  . . .T T T | | | )   W T T T | | | { { { T T T | | | T T d o           ",
"                  1 T T  . . .I S N | | | G   C M U T | | | { { { T T T | | | M i 8             ",
"                  , T T | | | _ R ~ k T y j     + / [ T T T | | | | | | T T L Q j               ",
"                  < T T | | | B   B p T 7           r T T T | | | | | | T T N B                 ",
"                  X y n | | | f   $ O                 l T T | | | | | | I m s                   ",
"                      E J T H o                         Q { T T T T T T ( 0                     ",
"                        z T h                             : T T T T T P C                       ",
"                        # %                                 n S L K N x                         ",
"                                                              - ; - *                           ",
"                                                                                                ",
"                                                                                                ",
"                                                                                                ",
"                                                                                                ",
"                                                                                                ",
"                                                                                                ",
"                                                                                                ",
"                                                                                                ",
"                                                                                                ",
"                                                                                                ",
"                                                                                                "
};
